<svg width="27" height="35" viewBox="0 0 27 35" fill="none" xmlns="http://www.w3.org/2000/svg">
<path d="M7.03423 33.8312C6.37412 33.5993 5.714 33.1354 5.27393 32.2077C4.83385 31.7438 4.39378 31.048 3.73367 30.1203C2.85352 28.7287 1.97337 26.8733 1.31326 25.0178C0.653143 22.9304 0.433105 20.8431 0.433105 18.7557C0.433105 16.4364 0.87318 14.5809 1.75333 12.9574C2.41344 11.5658 3.51363 10.6381 4.61382 9.71036C5.714 9.01456 7.03423 8.5507 8.35445 8.5507C8.79453 8.5507 9.2346 8.5507 9.89472 8.78263C10.3348 8.78263 10.7749 9.01456 11.435 9.24649C12.0951 9.47843 12.5352 9.71036 12.7552 9.71036C13.1953 9.94229 13.6354 9.94229 13.8554 9.94229C14.0754 9.94229 14.2955 9.94229 14.7355 9.71036C14.9556 9.71036 15.3957 9.47843 15.8357 9.24649C16.2758 9.01456 16.7159 8.78263 17.156 8.78263C17.596 8.78263 18.0361 8.5507 18.4762 8.5507C18.9163 8.5507 19.5764 8.31877 20.0164 8.5507C20.8966 8.5507 21.7767 8.78263 22.6569 9.24649C23.9771 9.71036 25.0773 10.87 25.9574 12.0297C25.7374 12.0297 25.2973 12.2616 25.0773 12.7255C24.4172 13.4213 23.7571 14.1171 23.317 14.8128C22.8769 15.9725 22.4368 17.1322 22.4368 18.5238C22.4368 20.1473 22.8769 21.5389 23.537 22.6985C23.9771 23.6262 24.8573 24.322 25.5174 24.7859C26.1775 25.0178 26.6176 25.2498 26.8376 25.4817C26.8376 25.9456 26.6176 26.6413 26.3975 26.8733C25.9574 28.2649 25.2973 29.1926 24.6372 30.3522C23.9771 31.28 23.537 31.9758 23.317 32.2077C22.6569 32.9035 22.2168 33.5993 21.5567 33.8312C21.1166 34.2951 20.4565 34.527 19.5764 34.527C19.1363 34.527 18.6962 34.527 18.2561 34.2951C18.0361 34.2951 17.596 34.0631 17.156 33.8312C16.4958 33.5993 16.2758 33.3674 15.8357 33.3674C15.3957 33.1354 14.7355 33.1354 14.2955 33.1354C13.8554 33.1354 13.1953 33.1354 12.7552 33.3674C12.3151 33.3674 11.8751 33.5993 11.435 33.8312C10.7749 34.0631 10.5548 34.2951 10.3348 34.2951C9.89472 34.527 9.45464 34.527 9.01457 34.527C8.35445 34.527 7.69434 34.2951 7.03423 33.8312ZM16.2758 7.39104C15.3957 7.85491 14.5155 8.08684 13.6354 8.08684C13.4153 7.15911 13.6354 6.23139 14.0754 5.07173C14.5155 4.144 14.7355 3.44821 15.3957 2.75242C16.0558 2.05662 16.7159 1.36083 17.596 0.896966C18.4762 0.433104 19.3563 0.201172 20.2365 0.201172C20.2365 1.1289 20.0164 2.05662 19.7964 3.21628C19.5764 4.14401 18.9163 4.8398 18.4762 5.53559C17.8161 6.46332 17.156 6.92718 16.2758 7.39104Z" fill="#555555"/>
</svg>
