<svg width="255" height="256" viewBox="0 0 255 256" fill="none" xmlns="http://www.w3.org/2000/svg">
<mask id="mask0_1304_6576" style="mask-type:luminance" maskUnits="userSpaceOnUse" x="0" y="0" width="255" height="256">
<path d="M4.80298 79.8867C7.22598 79.8867 9.1902 77.9225 9.1902 75.4995C9.1902 73.0765 7.22598 71.1123 4.80298 71.1123C2.37999 71.1123 0.415771 73.0765 0.415771 75.4995C0.415771 77.9225 2.37999 79.8867 4.80298 79.8867Z" fill="white"/>
<path d="M4.80298 88.6611C7.22598 88.6611 9.1902 86.6969 9.1902 84.2739C9.1902 81.8509 7.22598 79.8867 4.80298 79.8867C2.37999 79.8867 0.415771 81.8509 0.415771 84.2739C0.415771 86.6969 2.37999 88.6611 4.80298 88.6611Z" fill="white"/>
<path d="M4.80298 97.4356C7.22598 97.4356 9.1902 95.4713 9.1902 93.0483C9.1902 90.6254 7.22598 88.6611 4.80298 88.6611C2.37999 88.6611 0.415771 90.6254 0.415771 93.0483C0.415771 95.4713 2.37999 97.4356 4.80298 97.4356Z" fill="white"/>
<path d="M4.80298 106.21C7.22598 106.21 9.1902 104.246 9.1902 101.823C9.1902 99.3998 7.22598 97.4355 4.80298 97.4355C2.37999 97.4355 0.415771 99.3998 0.415771 101.823C0.415771 104.246 2.37999 106.21 4.80298 106.21Z" fill="white"/>
<path d="M4.80298 114.984C7.22598 114.984 9.1902 113.02 9.1902 110.597C9.1902 108.174 7.22598 106.21 4.80298 106.21C2.37999 106.21 0.415771 108.174 0.415771 110.597C0.415771 113.02 2.37999 114.984 4.80298 114.984Z" fill="white"/>
<path d="M4.80298 141.308C7.22598 141.308 9.1902 139.343 9.1902 136.92C9.1902 134.497 7.22598 132.533 4.80298 132.533C2.37999 132.533 0.415771 134.497 0.415771 136.92C0.415771 139.343 2.37999 141.308 4.80298 141.308Z" fill="white"/>
<path d="M4.80298 158.856C7.22598 158.856 9.1902 156.892 9.1902 154.469C9.1902 152.046 7.22598 150.082 4.80298 150.082C2.37999 150.082 0.415771 152.046 0.415771 154.469C0.415771 156.892 2.37999 158.856 4.80298 158.856Z" fill="white"/>
<path d="M4.80298 176.405C7.22598 176.405 9.1902 174.441 9.1902 172.018C9.1902 169.595 7.22598 167.631 4.80298 167.631C2.37999 167.631 0.415771 169.595 0.415771 172.018C0.415771 174.441 2.37999 176.405 4.80298 176.405Z" fill="white"/>
<path d="M4.80298 185.18C7.22598 185.18 9.1902 183.215 9.1902 180.792C9.1902 178.369 7.22598 176.405 4.80298 176.405C2.37999 176.405 0.415771 178.369 0.415771 180.792C0.415771 183.215 2.37999 185.18 4.80298 185.18Z" fill="white"/>
<path d="M13.5774 79.8867C16.0004 79.8867 17.9646 77.9225 17.9646 75.4995C17.9646 73.0765 16.0004 71.1123 13.5774 71.1123C11.1544 71.1123 9.19019 73.0765 9.19019 75.4995C9.19019 77.9225 11.1544 79.8867 13.5774 79.8867Z" fill="white"/>
<path d="M13.5774 88.6611C16.0004 88.6611 17.9646 86.6969 17.9646 84.2739C17.9646 81.8509 16.0004 79.8867 13.5774 79.8867C11.1544 79.8867 9.19019 81.8509 9.19019 84.2739C9.19019 86.6969 11.1544 88.6611 13.5774 88.6611Z" fill="white"/>
<path d="M13.5774 97.4356C16.0004 97.4356 17.9646 95.4713 17.9646 93.0483C17.9646 90.6254 16.0004 88.6611 13.5774 88.6611C11.1544 88.6611 9.19019 90.6254 9.19019 93.0483C9.19019 95.4713 11.1544 97.4356 13.5774 97.4356Z" fill="white"/>
<path d="M13.5774 114.984C16.0004 114.984 17.9646 113.02 17.9646 110.597C17.9646 108.174 16.0004 106.21 13.5774 106.21C11.1544 106.21 9.19019 108.174 9.19019 110.597C9.19019 113.02 11.1544 114.984 13.5774 114.984Z" fill="white"/>
<path d="M13.5774 123.759C16.0004 123.759 17.9646 121.795 17.9646 119.372C17.9646 116.949 16.0004 114.984 13.5774 114.984C11.1544 114.984 9.19019 116.949 9.19019 119.372C9.19019 121.795 11.1544 123.759 13.5774 123.759Z" fill="white"/>
<path d="M13.5774 158.856C16.0004 158.856 17.9646 156.892 17.9646 154.469C17.9646 152.046 16.0004 150.082 13.5774 150.082C11.1544 150.082 9.19019 152.046 9.19019 154.469C9.19019 156.892 11.1544 158.856 13.5774 158.856Z" fill="white"/>
<path d="M13.5774 185.18C16.0004 185.18 17.9646 183.215 17.9646 180.792C17.9646 178.369 16.0004 176.405 13.5774 176.405C11.1544 176.405 9.19019 178.369 9.19019 180.792C9.19019 183.215 11.1544 185.18 13.5774 185.18Z" fill="white"/>
<path d="M22.3517 88.6611C24.7747 88.6611 26.7389 86.6969 26.7389 84.2739C26.7389 81.8509 24.7747 79.8867 22.3517 79.8867C19.9287 79.8867 17.9645 81.8509 17.9645 84.2739C17.9645 86.6969 19.9287 88.6611 22.3517 88.6611Z" fill="white"/>
<path d="M22.3517 106.21C24.7747 106.21 26.7389 104.246 26.7389 101.823C26.7389 99.3998 24.7747 97.4355 22.3517 97.4355C19.9287 97.4355 17.9645 99.3998 17.9645 101.823C17.9645 104.246 19.9287 106.21 22.3517 106.21Z" fill="white"/>
<path d="M22.3517 114.984C24.7747 114.984 26.7389 113.02 26.7389 110.597C26.7389 108.174 24.7747 106.21 22.3517 106.21C19.9287 106.21 17.9645 108.174 17.9645 110.597C17.9645 113.02 19.9287 114.984 22.3517 114.984Z" fill="white"/>
<path d="M22.3517 141.308C24.7747 141.308 26.7389 139.343 26.7389 136.92C26.7389 134.497 24.7747 132.533 22.3517 132.533C19.9287 132.533 17.9645 134.497 17.9645 136.92C17.9645 139.343 19.9287 141.308 22.3517 141.308Z" fill="white"/>
<path d="M31.1261 88.6611C33.5491 88.6611 35.5133 86.6969 35.5133 84.2739C35.5133 81.8509 33.5491 79.8867 31.1261 79.8867C28.7031 79.8867 26.7389 81.8509 26.7389 84.2739C26.7389 86.6969 28.7031 88.6611 31.1261 88.6611Z" fill="white"/>
<path d="M31.1261 97.4356C33.5491 97.4356 35.5133 95.4713 35.5133 93.0483C35.5133 90.6254 33.5491 88.6611 31.1261 88.6611C28.7031 88.6611 26.7389 90.6254 26.7389 93.0483C26.7389 95.4713 28.7031 97.4356 31.1261 97.4356Z" fill="white"/>
<path d="M31.1261 106.21C33.5491 106.21 35.5133 104.246 35.5133 101.823C35.5133 99.3998 33.5491 97.4355 31.1261 97.4355C28.7031 97.4355 26.7389 99.3998 26.7389 101.823C26.7389 104.246 28.7031 106.21 31.1261 106.21Z" fill="white"/>
<path d="M31.1261 114.984C33.5491 114.984 35.5133 113.02 35.5133 110.597C35.5133 108.174 33.5491 106.21 31.1261 106.21C28.7031 106.21 26.7389 108.174 26.7389 110.597C26.7389 113.02 28.7031 114.984 31.1261 114.984Z" fill="white"/>
<path d="M31.1261 132.534C33.5491 132.534 35.5133 130.57 35.5133 128.147C35.5133 125.724 33.5491 123.76 31.1261 123.76C28.7031 123.76 26.7389 125.724 26.7389 128.147C26.7389 130.57 28.7031 132.534 31.1261 132.534Z" fill="white"/>
<path d="M31.1261 141.308C33.5491 141.308 35.5133 139.343 35.5133 136.92C35.5133 134.497 33.5491 132.533 31.1261 132.533C28.7031 132.533 26.7389 134.497 26.7389 136.92C26.7389 139.343 28.7031 141.308 31.1261 141.308Z" fill="white"/>
<path d="M31.1261 158.856C33.5491 158.856 35.5133 156.892 35.5133 154.469C35.5133 152.046 33.5491 150.082 31.1261 150.082C28.7031 150.082 26.7389 152.046 26.7389 154.469C26.7389 156.892 28.7031 158.856 31.1261 158.856Z" fill="white"/>
<path d="M31.1261 167.631C33.5491 167.631 35.5133 165.667 35.5133 163.244C35.5133 160.821 33.5491 158.856 31.1261 158.856C28.7031 158.856 26.7389 160.821 26.7389 163.244C26.7389 165.667 28.7031 167.631 31.1261 167.631Z" fill="white"/>
<path d="M39.9004 88.6611C42.3234 88.6611 44.2876 86.6969 44.2876 84.2739C44.2876 81.8509 42.3234 79.8867 39.9004 79.8867C37.4774 79.8867 35.5132 81.8509 35.5132 84.2739C35.5132 86.6969 37.4774 88.6611 39.9004 88.6611Z" fill="white"/>
<path d="M39.9004 123.759C42.3234 123.759 44.2876 121.795 44.2876 119.372C44.2876 116.949 42.3234 114.984 39.9004 114.984C37.4774 114.984 35.5132 116.949 35.5132 119.372C35.5132 121.795 37.4774 123.759 39.9004 123.759Z" fill="white"/>
<path d="M39.9004 150.082C42.3234 150.082 44.2876 148.118 44.2876 145.695C44.2876 143.272 42.3234 141.308 39.9004 141.308C37.4774 141.308 35.5132 143.272 35.5132 145.695C35.5132 148.118 37.4774 150.082 39.9004 150.082Z" fill="white"/>
<path d="M39.9004 158.856C42.3234 158.856 44.2876 156.892 44.2876 154.469C44.2876 152.046 42.3234 150.082 39.9004 150.082C37.4774 150.082 35.5132 152.046 35.5132 154.469C35.5132 156.892 37.4774 158.856 39.9004 158.856Z" fill="white"/>
<path d="M39.9004 167.631C42.3234 167.631 44.2876 165.667 44.2876 163.244C44.2876 160.821 42.3234 158.856 39.9004 158.856C37.4774 158.856 35.5132 160.821 35.5132 163.244C35.5132 165.667 37.4774 167.631 39.9004 167.631Z" fill="white"/>
<path d="M39.9004 176.405C42.3234 176.405 44.2876 174.441 44.2876 172.018C44.2876 169.595 42.3234 167.631 39.9004 167.631C37.4774 167.631 35.5132 169.595 35.5132 172.018C35.5132 174.441 37.4774 176.405 39.9004 176.405Z" fill="white"/>
<path d="M39.9004 185.18C42.3234 185.18 44.2876 183.215 44.2876 180.792C44.2876 178.369 42.3234 176.405 39.9004 176.405C37.4774 176.405 35.5132 178.369 35.5132 180.792C35.5132 183.215 37.4774 185.18 39.9004 185.18Z" fill="white"/>
<path d="M48.6748 97.4356C51.0978 97.4356 53.062 95.4713 53.062 93.0483C53.062 90.6254 51.0978 88.6611 48.6748 88.6611C46.2518 88.6611 44.2876 90.6254 44.2876 93.0483C44.2876 95.4713 46.2518 97.4356 48.6748 97.4356Z" fill="white"/>
<path d="M48.6748 106.21C51.0978 106.21 53.062 104.246 53.062 101.823C53.062 99.3998 51.0978 97.4355 48.6748 97.4355C46.2518 97.4355 44.2876 99.3998 44.2876 101.823C44.2876 104.246 46.2518 106.21 48.6748 106.21Z" fill="white"/>
<path d="M48.6748 114.984C51.0978 114.984 53.062 113.02 53.062 110.597C53.062 108.174 51.0978 106.21 48.6748 106.21C46.2518 106.21 44.2876 108.174 44.2876 110.597C44.2876 113.02 46.2518 114.984 48.6748 114.984Z" fill="white"/>
<path d="M48.6748 141.308C51.0978 141.308 53.062 139.343 53.062 136.92C53.062 134.497 51.0978 132.533 48.6748 132.533C46.2518 132.533 44.2876 134.497 44.2876 136.92C44.2876 139.343 46.2518 141.308 48.6748 141.308Z" fill="white"/>
<path d="M48.6748 158.856C51.0978 158.856 53.062 156.892 53.062 154.469C53.062 152.046 51.0978 150.082 48.6748 150.082C46.2518 150.082 44.2876 152.046 44.2876 154.469C44.2876 156.892 46.2518 158.856 48.6748 158.856Z" fill="white"/>
<path d="M48.6748 185.18C51.0978 185.18 53.062 183.215 53.062 180.792C53.062 178.369 51.0978 176.405 48.6748 176.405C46.2518 176.405 44.2876 178.369 44.2876 180.792C44.2876 183.215 46.2518 185.18 48.6748 185.18Z" fill="white"/>
<path d="M57.4492 79.8867C59.8722 79.8867 61.8364 77.9225 61.8364 75.4995C61.8364 73.0765 59.8722 71.1123 57.4492 71.1123C55.0262 71.1123 53.062 73.0765 53.062 75.4995C53.062 77.9225 55.0262 79.8867 57.4492 79.8867Z" fill="white"/>
<path d="M57.4492 97.4356C59.8722 97.4356 61.8364 95.4713 61.8364 93.0483C61.8364 90.6254 59.8722 88.6611 57.4492 88.6611C55.0262 88.6611 53.062 90.6254 53.062 93.0483C53.062 95.4713 55.0262 97.4356 57.4492 97.4356Z" fill="white"/>
<path d="M57.4492 114.984C59.8722 114.984 61.8364 113.02 61.8364 110.597C61.8364 108.174 59.8722 106.21 57.4492 106.21C55.0262 106.21 53.062 108.174 53.062 110.597C53.062 113.02 55.0262 114.984 57.4492 114.984Z" fill="white"/>
<path d="M57.4492 132.534C59.8722 132.534 61.8364 130.57 61.8364 128.147C61.8364 125.724 59.8722 123.76 57.4492 123.76C55.0262 123.76 53.062 125.724 53.062 128.147C53.062 130.57 55.0262 132.534 57.4492 132.534Z" fill="white"/>
<path d="M57.4492 150.082C59.8722 150.082 61.8364 148.118 61.8364 145.695C61.8364 143.272 59.8722 141.308 57.4492 141.308C55.0262 141.308 53.062 143.272 53.062 145.695C53.062 148.118 55.0262 150.082 57.4492 150.082Z" fill="white"/>
<path d="M57.4492 167.631C59.8722 167.631 61.8364 165.667 61.8364 163.244C61.8364 160.821 59.8722 158.856 57.4492 158.856C55.0262 158.856 53.062 160.821 53.062 163.244C53.062 165.667 55.0262 167.631 57.4492 167.631Z" fill="white"/>
<path d="M57.4492 185.18C59.8722 185.18 61.8364 183.215 61.8364 180.792C61.8364 178.369 59.8722 176.405 57.4492 176.405C55.0262 176.405 53.062 178.369 53.062 180.792C53.062 183.215 55.0262 185.18 57.4492 185.18Z" fill="white"/>
<path d="M66.2235 88.6611C68.6465 88.6611 70.6107 86.6969 70.6107 84.2739C70.6107 81.8509 68.6465 79.8867 66.2235 79.8867C63.8005 79.8867 61.8363 81.8509 61.8363 84.2739C61.8363 86.6969 63.8005 88.6611 66.2235 88.6611Z" fill="white"/>
<path d="M66.2235 123.759C68.6465 123.759 70.6107 121.795 70.6107 119.372C70.6107 116.949 68.6465 114.984 66.2235 114.984C63.8005 114.984 61.8363 116.949 61.8363 119.372C61.8363 121.795 63.8005 123.759 66.2235 123.759Z" fill="white"/>
<path d="M66.2235 132.534C68.6465 132.534 70.6107 130.57 70.6107 128.147C70.6107 125.724 68.6465 123.76 66.2235 123.76C63.8005 123.76 61.8363 125.724 61.8363 128.147C61.8363 130.57 63.8005 132.534 66.2235 132.534Z" fill="white"/>
<path d="M66.2235 141.308C68.6465 141.308 70.6107 139.343 70.6107 136.92C70.6107 134.497 68.6465 132.533 66.2235 132.533C63.8005 132.533 61.8363 134.497 61.8363 136.92C61.8363 139.343 63.8005 141.308 66.2235 141.308Z" fill="white"/>
<path d="M66.2235 150.082C68.6465 150.082 70.6107 148.118 70.6107 145.695C70.6107 143.272 68.6465 141.308 66.2235 141.308C63.8005 141.308 61.8363 143.272 61.8363 145.695C61.8363 148.118 63.8005 150.082 66.2235 150.082Z" fill="white"/>
<path d="M66.2235 158.856C68.6465 158.856 70.6107 156.892 70.6107 154.469C70.6107 152.046 68.6465 150.082 66.2235 150.082C63.8005 150.082 61.8363 152.046 61.8363 154.469C61.8363 156.892 63.8005 158.856 66.2235 158.856Z" fill="white"/>
<path d="M66.2235 167.631C68.6465 167.631 70.6107 165.667 70.6107 163.244C70.6107 160.821 68.6465 158.856 66.2235 158.856C63.8005 158.856 61.8363 160.821 61.8363 163.244C61.8363 165.667 63.8005 167.631 66.2235 167.631Z" fill="white"/>
<path d="M66.2235 176.405C68.6465 176.405 70.6107 174.441 70.6107 172.018C70.6107 169.595 68.6465 167.631 66.2235 167.631C63.8005 167.631 61.8363 169.595 61.8363 172.018C61.8363 174.441 63.8005 176.405 66.2235 176.405Z" fill="white"/>
<path d="M66.2235 185.18C68.6465 185.18 70.6107 183.215 70.6107 180.792C70.6107 178.369 68.6465 176.405 66.2235 176.405C63.8005 176.405 61.8363 178.369 61.8363 180.792C61.8363 183.215 63.8005 185.18 66.2235 185.18Z" fill="white"/>
<path d="M74.9989 18.4658C77.4219 18.4658 79.3861 16.5016 79.3861 14.0786C79.3861 11.6556 77.4219 9.69141 74.9989 9.69141C72.5759 9.69141 70.6117 11.6556 70.6117 14.0786C70.6117 16.5016 72.5759 18.4658 74.9989 18.4658Z" fill="white"/>
<path d="M74.9989 62.3379C77.4219 62.3379 79.3861 60.3737 79.3861 57.9507C79.3861 55.5277 77.4219 53.5635 74.9989 53.5635C72.5759 53.5635 70.6117 55.5277 70.6117 57.9507C70.6117 60.3737 72.5759 62.3379 74.9989 62.3379Z" fill="white"/>
<path d="M74.9989 71.1123C77.4219 71.1123 79.3861 69.1481 79.3861 66.7251C79.3861 64.3021 77.4219 62.3379 74.9989 62.3379C72.5759 62.3379 70.6117 64.3021 70.6117 66.7251C70.6117 69.1481 72.5759 71.1123 74.9989 71.1123Z" fill="white"/>
<path d="M74.9989 79.8867C77.4219 79.8867 79.3861 77.9225 79.3861 75.4995C79.3861 73.0765 77.4219 71.1123 74.9989 71.1123C72.5759 71.1123 70.6117 73.0765 70.6117 75.4995C70.6117 77.9225 72.5759 79.8867 74.9989 79.8867Z" fill="white"/>
<path d="M74.9989 88.6611C77.4219 88.6611 79.3861 86.6969 79.3861 84.2739C79.3861 81.8509 77.4219 79.8867 74.9989 79.8867C72.5759 79.8867 70.6117 81.8509 70.6117 84.2739C70.6117 86.6969 72.5759 88.6611 74.9989 88.6611Z" fill="white"/>
<path d="M74.9989 114.984C77.4219 114.984 79.3861 113.02 79.3861 110.597C79.3861 108.174 77.4219 106.21 74.9989 106.21C72.5759 106.21 70.6117 108.174 70.6117 110.597C70.6117 113.02 72.5759 114.984 74.9989 114.984Z" fill="white"/>
<path d="M74.9989 193.954C77.4219 193.954 79.3861 191.99 79.3861 189.567C79.3861 187.144 77.4219 185.18 74.9989 185.18C72.5759 185.18 70.6117 187.144 70.6117 189.567C70.6117 191.99 72.5759 193.954 74.9989 193.954Z" fill="white"/>
<path d="M74.9989 246.601C77.4219 246.601 79.3861 244.636 79.3861 242.213C79.3861 239.79 77.4219 237.826 74.9989 237.826C72.5759 237.826 70.6117 239.79 70.6117 242.213C70.6117 244.636 72.5759 246.601 74.9989 246.601Z" fill="white"/>
<path d="M74.9989 255.375C77.4219 255.375 79.3861 253.411 79.3861 250.988C79.3861 248.565 77.4219 246.601 74.9989 246.601C72.5759 246.601 70.6117 248.565 70.6117 250.988C70.6117 253.411 72.5759 255.375 74.9989 255.375Z" fill="white"/>
<path d="M83.7733 9.69142C86.1963 9.69142 88.1605 7.7272 88.1605 5.3042C88.1605 2.88121 86.1963 0.916992 83.7733 0.916992C81.3503 0.916992 79.3861 2.88121 79.3861 5.3042C79.3861 7.7272 81.3503 9.69142 83.7733 9.69142Z" fill="white"/>
<path d="M83.7733 53.5635C86.1963 53.5635 88.1605 51.5993 88.1605 49.1763C88.1605 46.7533 86.1963 44.7891 83.7733 44.7891C81.3503 44.7891 79.3861 46.7533 79.3861 49.1763C79.3861 51.5993 81.3503 53.5635 83.7733 53.5635Z" fill="white"/>
<path d="M83.7733 71.1123C86.1963 71.1123 88.1605 69.1481 88.1605 66.7251C88.1605 64.3021 86.1963 62.3379 83.7733 62.3379C81.3503 62.3379 79.3861 64.3021 79.3861 66.7251C79.3861 69.1481 81.3503 71.1123 83.7733 71.1123Z" fill="white"/>
<path d="M83.7733 79.8867C86.1963 79.8867 88.1605 77.9225 88.1605 75.4995C88.1605 73.0765 86.1963 71.1123 83.7733 71.1123C81.3503 71.1123 79.3861 73.0765 79.3861 75.4995C79.3861 77.9225 81.3503 79.8867 83.7733 79.8867Z" fill="white"/>
<path d="M83.7733 97.4356C86.1963 97.4356 88.1605 95.4713 88.1605 93.0483C88.1605 90.6254 86.1963 88.6611 83.7733 88.6611C81.3503 88.6611 79.3861 90.6254 79.3861 93.0483C79.3861 95.4713 81.3503 97.4356 83.7733 97.4356Z" fill="white"/>
<path d="M83.7733 123.759C86.1963 123.759 88.1605 121.795 88.1605 119.372C88.1605 116.949 86.1963 114.984 83.7733 114.984C81.3503 114.984 79.3861 116.949 79.3861 119.372C79.3861 121.795 81.3503 123.759 83.7733 123.759Z" fill="white"/>
<path d="M83.7733 132.534C86.1963 132.534 88.1605 130.57 88.1605 128.147C88.1605 125.724 86.1963 123.76 83.7733 123.76C81.3503 123.76 79.3861 125.724 79.3861 128.147C79.3861 130.57 81.3503 132.534 83.7733 132.534Z" fill="white"/>
<path d="M83.7733 150.082C86.1963 150.082 88.1605 148.118 88.1605 145.695C88.1605 143.272 86.1963 141.308 83.7733 141.308C81.3503 141.308 79.3861 143.272 79.3861 145.695C79.3861 148.118 81.3503 150.082 83.7733 150.082Z" fill="white"/>
<path d="M83.7733 158.856C86.1963 158.856 88.1605 156.892 88.1605 154.469C88.1605 152.046 86.1963 150.082 83.7733 150.082C81.3503 150.082 79.3861 152.046 79.3861 154.469C79.3861 156.892 81.3503 158.856 83.7733 158.856Z" fill="white"/>
<path d="M83.7733 167.631C86.1963 167.631 88.1605 165.667 88.1605 163.244C88.1605 160.821 86.1963 158.856 83.7733 158.856C81.3503 158.856 79.3861 160.821 79.3861 163.244C79.3861 165.667 81.3503 167.631 83.7733 167.631Z" fill="white"/>
<path d="M83.7733 202.729C86.1963 202.729 88.1605 200.764 88.1605 198.341C88.1605 195.918 86.1963 193.954 83.7733 193.954C81.3503 193.954 79.3861 195.918 79.3861 198.341C79.3861 200.764 81.3503 202.729 83.7733 202.729Z" fill="white"/>
<path d="M83.7733 211.503C86.1963 211.503 88.1605 209.539 88.1605 207.116C88.1605 204.693 86.1963 202.729 83.7733 202.729C81.3503 202.729 79.3861 204.693 79.3861 207.116C79.3861 209.539 81.3503 211.503 83.7733 211.503Z" fill="white"/>
<path d="M83.7733 229.052C86.1963 229.052 88.1605 227.088 88.1605 224.665C88.1605 222.242 86.1963 220.277 83.7733 220.277C81.3503 220.277 79.3861 222.242 79.3861 224.665C79.3861 227.088 81.3503 229.052 83.7733 229.052Z" fill="white"/>
<path d="M83.7733 237.826C86.1963 237.826 88.1605 235.862 88.1605 233.439C88.1605 231.016 86.1963 229.052 83.7733 229.052C81.3503 229.052 79.3861 231.016 79.3861 233.439C79.3861 235.862 81.3503 237.826 83.7733 237.826Z" fill="white"/>
<path d="M83.7733 246.601C86.1963 246.601 88.1605 244.636 88.1605 242.213C88.1605 239.79 86.1963 237.826 83.7733 237.826C81.3503 237.826 79.3861 239.79 79.3861 242.213C79.3861 244.636 81.3503 246.601 83.7733 246.601Z" fill="white"/>
<path d="M92.5476 9.69142C94.9706 9.69142 96.9348 7.7272 96.9348 5.3042C96.9348 2.88121 94.9706 0.916992 92.5476 0.916992C90.1246 0.916992 88.1604 2.88121 88.1604 5.3042C88.1604 7.7272 90.1246 9.69142 92.5476 9.69142Z" fill="white"/>
<path d="M92.5476 62.3379C94.9706 62.3379 96.9348 60.3737 96.9348 57.9507C96.9348 55.5277 94.9706 53.5635 92.5476 53.5635C90.1246 53.5635 88.1604 55.5277 88.1604 57.9507C88.1604 60.3737 90.1246 62.3379 92.5476 62.3379Z" fill="white"/>
<path d="M92.5476 71.1123C94.9706 71.1123 96.9348 69.1481 96.9348 66.7251C96.9348 64.3021 94.9706 62.3379 92.5476 62.3379C90.1246 62.3379 88.1604 64.3021 88.1604 66.7251C88.1604 69.1481 90.1246 71.1123 92.5476 71.1123Z" fill="white"/>
<path d="M92.5476 79.8867C94.9706 79.8867 96.9348 77.9225 96.9348 75.4995C96.9348 73.0765 94.9706 71.1123 92.5476 71.1123C90.1246 71.1123 88.1604 73.0765 88.1604 75.4995C88.1604 77.9225 90.1246 79.8867 92.5476 79.8867Z" fill="white"/>
<path d="M92.5476 88.6611C94.9706 88.6611 96.9348 86.6969 96.9348 84.2739C96.9348 81.8509 94.9706 79.8867 92.5476 79.8867C90.1246 79.8867 88.1604 81.8509 88.1604 84.2739C88.1604 86.6969 90.1246 88.6611 92.5476 88.6611Z" fill="white"/>
<path d="M92.5476 123.759C94.9706 123.759 96.9348 121.795 96.9348 119.372C96.9348 116.949 94.9706 114.984 92.5476 114.984C90.1246 114.984 88.1604 116.949 88.1604 119.372C88.1604 121.795 90.1246 123.759 92.5476 123.759Z" fill="white"/>
<path d="M92.5476 150.082C94.9706 150.082 96.9348 148.118 96.9348 145.695C96.9348 143.272 94.9706 141.308 92.5476 141.308C90.1246 141.308 88.1604 143.272 88.1604 145.695C88.1604 148.118 90.1246 150.082 92.5476 150.082Z" fill="white"/>
<path d="M92.5476 158.856C94.9706 158.856 96.9348 156.892 96.9348 154.469C96.9348 152.046 94.9706 150.082 92.5476 150.082C90.1246 150.082 88.1604 152.046 88.1604 154.469C88.1604 156.892 90.1246 158.856 92.5476 158.856Z" fill="white"/>
<path d="M92.5476 176.405C94.9706 176.405 96.9348 174.441 96.9348 172.018C96.9348 169.595 94.9706 167.631 92.5476 167.631C90.1246 167.631 88.1604 169.595 88.1604 172.018C88.1604 174.441 90.1246 176.405 92.5476 176.405Z" fill="white"/>
<path d="M92.5476 193.954C94.9706 193.954 96.9348 191.99 96.9348 189.567C96.9348 187.144 94.9706 185.18 92.5476 185.18C90.1246 185.18 88.1604 187.144 88.1604 189.567C88.1604 191.99 90.1246 193.954 92.5476 193.954Z" fill="white"/>
<path d="M92.5476 202.729C94.9706 202.729 96.9348 200.764 96.9348 198.341C96.9348 195.918 94.9706 193.954 92.5476 193.954C90.1246 193.954 88.1604 195.918 88.1604 198.341C88.1604 200.764 90.1246 202.729 92.5476 202.729Z" fill="white"/>
<path d="M92.5476 229.052C94.9706 229.052 96.9348 227.088 96.9348 224.665C96.9348 222.242 94.9706 220.277 92.5476 220.277C90.1246 220.277 88.1604 222.242 88.1604 224.665C88.1604 227.088 90.1246 229.052 92.5476 229.052Z" fill="white"/>
<path d="M92.5476 237.826C94.9706 237.826 96.9348 235.862 96.9348 233.439C96.9348 231.016 94.9706 229.052 92.5476 229.052C90.1246 229.052 88.1604 231.016 88.1604 233.439C88.1604 235.862 90.1246 237.826 92.5476 237.826Z" fill="white"/>
<path d="M101.322 18.4658C103.745 18.4658 105.709 16.5016 105.709 14.0786C105.709 11.6556 103.745 9.69141 101.322 9.69141C98.899 9.69141 96.9348 11.6556 96.9348 14.0786C96.9348 16.5016 98.899 18.4658 101.322 18.4658Z" fill="white"/>
<path d="M101.322 27.2402C103.745 27.2402 105.709 25.276 105.709 22.853C105.709 20.43 103.745 18.4658 101.322 18.4658C98.899 18.4658 96.9348 20.43 96.9348 22.853C96.9348 25.276 98.899 27.2402 101.322 27.2402Z" fill="white"/>
<path d="M101.322 36.0147C103.745 36.0147 105.709 34.0504 105.709 31.6274C105.709 29.2045 103.745 27.2402 101.322 27.2402C98.899 27.2402 96.9348 29.2045 96.9348 31.6274C96.9348 34.0504 98.899 36.0147 101.322 36.0147Z" fill="white"/>
<path d="M101.322 44.7891C103.745 44.7891 105.709 42.8249 105.709 40.4019C105.709 37.9789 103.745 36.0146 101.322 36.0146C98.899 36.0146 96.9348 37.9789 96.9348 40.4019C96.9348 42.8249 98.899 44.7891 101.322 44.7891Z" fill="white"/>
<path d="M101.322 53.5635C103.745 53.5635 105.709 51.5993 105.709 49.1763C105.709 46.7533 103.745 44.7891 101.322 44.7891C98.899 44.7891 96.9348 46.7533 96.9348 49.1763C96.9348 51.5993 98.899 53.5635 101.322 53.5635Z" fill="white"/>
<path d="M101.322 71.1123C103.745 71.1123 105.709 69.1481 105.709 66.7251C105.709 64.3021 103.745 62.3379 101.322 62.3379C98.899 62.3379 96.9348 64.3021 96.9348 66.7251C96.9348 69.1481 98.899 71.1123 101.322 71.1123Z" fill="white"/>
<path d="M101.322 97.4356C103.745 97.4356 105.709 95.4713 105.709 93.0483C105.709 90.6254 103.745 88.6611 101.322 88.6611C98.899 88.6611 96.9348 90.6254 96.9348 93.0483C96.9348 95.4713 98.899 97.4356 101.322 97.4356Z" fill="white"/>
<path d="M101.322 106.21C103.745 106.21 105.709 104.246 105.709 101.823C105.709 99.3998 103.745 97.4355 101.322 97.4355C98.899 97.4355 96.9348 99.3998 96.9348 101.823C96.9348 104.246 98.899 106.21 101.322 106.21Z" fill="white"/>
<path d="M101.322 114.984C103.745 114.984 105.709 113.02 105.709 110.597C105.709 108.174 103.745 106.21 101.322 106.21C98.899 106.21 96.9348 108.174 96.9348 110.597C96.9348 113.02 98.899 114.984 101.322 114.984Z" fill="white"/>
<path d="M101.322 123.759C103.745 123.759 105.709 121.795 105.709 119.372C105.709 116.949 103.745 114.984 101.322 114.984C98.899 114.984 96.9348 116.949 96.9348 119.372C96.9348 121.795 98.899 123.759 101.322 123.759Z" fill="white"/>
<path d="M101.322 141.308C103.745 141.308 105.709 139.343 105.709 136.92C105.709 134.497 103.745 132.533 101.322 132.533C98.899 132.533 96.9348 134.497 96.9348 136.92C96.9348 139.343 98.899 141.308 101.322 141.308Z" fill="white"/>
<path d="M101.322 167.631C103.745 167.631 105.709 165.667 105.709 163.244C105.709 160.821 103.745 158.856 101.322 158.856C98.899 158.856 96.9348 160.821 96.9348 163.244C96.9348 165.667 98.899 167.631 101.322 167.631Z" fill="white"/>
<path d="M101.322 176.405C103.745 176.405 105.709 174.441 105.709 172.018C105.709 169.595 103.745 167.631 101.322 167.631C98.899 167.631 96.9348 169.595 96.9348 172.018C96.9348 174.441 98.899 176.405 101.322 176.405Z" fill="white"/>
<path d="M101.322 185.18C103.745 185.18 105.709 183.215 105.709 180.792C105.709 178.369 103.745 176.405 101.322 176.405C98.899 176.405 96.9348 178.369 96.9348 180.792C96.9348 183.215 98.899 185.18 101.322 185.18Z" fill="white"/>
<path d="M101.322 202.729C103.745 202.729 105.709 200.764 105.709 198.341C105.709 195.918 103.745 193.954 101.322 193.954C98.899 193.954 96.9348 195.918 96.9348 198.341C96.9348 200.764 98.899 202.729 101.322 202.729Z" fill="white"/>
<path d="M101.322 211.503C103.745 211.503 105.709 209.539 105.709 207.116C105.709 204.693 103.745 202.729 101.322 202.729C98.899 202.729 96.9348 204.693 96.9348 207.116C96.9348 209.539 98.899 211.503 101.322 211.503Z" fill="white"/>
<path d="M110.096 18.4658C112.519 18.4658 114.484 16.5016 114.484 14.0786C114.484 11.6556 112.519 9.69141 110.096 9.69141C107.673 9.69141 105.709 11.6556 105.709 14.0786C105.709 16.5016 107.673 18.4658 110.096 18.4658Z" fill="white"/>
<path d="M110.096 27.2402C112.519 27.2402 114.484 25.276 114.484 22.853C114.484 20.43 112.519 18.4658 110.096 18.4658C107.673 18.4658 105.709 20.43 105.709 22.853C105.709 25.276 107.673 27.2402 110.096 27.2402Z" fill="white"/>
<path d="M110.096 36.0147C112.519 36.0147 114.484 34.0504 114.484 31.6274C114.484 29.2045 112.519 27.2402 110.096 27.2402C107.673 27.2402 105.709 29.2045 105.709 31.6274C105.709 34.0504 107.673 36.0147 110.096 36.0147Z" fill="white"/>
<path d="M110.096 44.7891C112.519 44.7891 114.484 42.8249 114.484 40.4019C114.484 37.9789 112.519 36.0146 110.096 36.0146C107.673 36.0146 105.709 37.9789 105.709 40.4019C105.709 42.8249 107.673 44.7891 110.096 44.7891Z" fill="white"/>
<path d="M110.096 53.5635C112.519 53.5635 114.484 51.5993 114.484 49.1763C114.484 46.7533 112.519 44.7891 110.096 44.7891C107.673 44.7891 105.709 46.7533 105.709 49.1763C105.709 51.5993 107.673 53.5635 110.096 53.5635Z" fill="white"/>
<path d="M110.096 62.3379C112.519 62.3379 114.484 60.3737 114.484 57.9507C114.484 55.5277 112.519 53.5635 110.096 53.5635C107.673 53.5635 105.709 55.5277 105.709 57.9507C105.709 60.3737 107.673 62.3379 110.096 62.3379Z" fill="white"/>
<path d="M110.096 88.6611C112.519 88.6611 114.484 86.6969 114.484 84.2739C114.484 81.8509 112.519 79.8867 110.096 79.8867C107.673 79.8867 105.709 81.8509 105.709 84.2739C105.709 86.6969 107.673 88.6611 110.096 88.6611Z" fill="white"/>
<path d="M110.096 97.4356C112.519 97.4356 114.484 95.4713 114.484 93.0483C114.484 90.6254 112.519 88.6611 110.096 88.6611C107.673 88.6611 105.709 90.6254 105.709 93.0483C105.709 95.4713 107.673 97.4356 110.096 97.4356Z" fill="white"/>
<path d="M110.096 114.984C112.519 114.984 114.484 113.02 114.484 110.597C114.484 108.174 112.519 106.21 110.096 106.21C107.673 106.21 105.709 108.174 105.709 110.597C105.709 113.02 107.673 114.984 110.096 114.984Z" fill="white"/>
<path d="M110.096 123.759C112.519 123.759 114.484 121.795 114.484 119.372C114.484 116.949 112.519 114.984 110.096 114.984C107.673 114.984 105.709 116.949 105.709 119.372C105.709 121.795 107.673 123.759 110.096 123.759Z" fill="white"/>
<path d="M110.096 132.534C112.519 132.534 114.484 130.57 114.484 128.147C114.484 125.724 112.519 123.76 110.096 123.76C107.673 123.76 105.709 125.724 105.709 128.147C105.709 130.57 107.673 132.534 110.096 132.534Z" fill="white"/>
<path d="M110.096 150.082C112.519 150.082 114.484 148.118 114.484 145.695C114.484 143.272 112.519 141.308 110.096 141.308C107.673 141.308 105.709 143.272 105.709 145.695C105.709 148.118 107.673 150.082 110.096 150.082Z" fill="white"/>
<path d="M110.096 193.954C112.519 193.954 114.484 191.99 114.484 189.567C114.484 187.144 112.519 185.18 110.096 185.18C107.673 185.18 105.709 187.144 105.709 189.567C105.709 191.99 107.673 193.954 110.096 193.954Z" fill="white"/>
<path d="M110.096 202.729C112.519 202.729 114.484 200.764 114.484 198.341C114.484 195.918 112.519 193.954 110.096 193.954C107.673 193.954 105.709 195.918 105.709 198.341C105.709 200.764 107.673 202.729 110.096 202.729Z" fill="white"/>
<path d="M110.096 229.052C112.519 229.052 114.484 227.088 114.484 224.665C114.484 222.242 112.519 220.277 110.096 220.277C107.673 220.277 105.709 222.242 105.709 224.665C105.709 227.088 107.673 229.052 110.096 229.052Z" fill="white"/>
<path d="M110.096 246.601C112.519 246.601 114.484 244.636 114.484 242.213C114.484 239.79 112.519 237.826 110.096 237.826C107.673 237.826 105.709 239.79 105.709 242.213C105.709 244.636 107.673 246.601 110.096 246.601Z" fill="white"/>
<path d="M118.871 18.4658C121.294 18.4658 123.258 16.5016 123.258 14.0786C123.258 11.6556 121.294 9.69141 118.871 9.69141C116.448 9.69141 114.484 11.6556 114.484 14.0786C114.484 16.5016 116.448 18.4658 118.871 18.4658Z" fill="white"/>
<path d="M118.871 44.7891C121.294 44.7891 123.258 42.8249 123.258 40.4019C123.258 37.9789 121.294 36.0146 118.871 36.0146C116.448 36.0146 114.484 37.9789 114.484 40.4019C114.484 42.8249 116.448 44.7891 118.871 44.7891Z" fill="white"/>
<path d="M118.871 53.5635C121.294 53.5635 123.258 51.5993 123.258 49.1763C123.258 46.7533 121.294 44.7891 118.871 44.7891C116.448 44.7891 114.484 46.7533 114.484 49.1763C114.484 51.5993 116.448 53.5635 118.871 53.5635Z" fill="white"/>
<path d="M118.871 71.1123C121.294 71.1123 123.258 69.1481 123.258 66.7251C123.258 64.3021 121.294 62.3379 118.871 62.3379C116.448 62.3379 114.484 64.3021 114.484 66.7251C114.484 69.1481 116.448 71.1123 118.871 71.1123Z" fill="white"/>
<path d="M118.871 79.8867C121.294 79.8867 123.258 77.9225 123.258 75.4995C123.258 73.0765 121.294 71.1123 118.871 71.1123C116.448 71.1123 114.484 73.0765 114.484 75.4995C114.484 77.9225 116.448 79.8867 118.871 79.8867Z" fill="white"/>
<path d="M118.871 88.6611C121.294 88.6611 123.258 86.6969 123.258 84.2739C123.258 81.8509 121.294 79.8867 118.871 79.8867C116.448 79.8867 114.484 81.8509 114.484 84.2739C114.484 86.6969 116.448 88.6611 118.871 88.6611Z" fill="white"/>
<path d="M118.871 97.4356C121.294 97.4356 123.258 95.4713 123.258 93.0483C123.258 90.6254 121.294 88.6611 118.871 88.6611C116.448 88.6611 114.484 90.6254 114.484 93.0483C114.484 95.4713 116.448 97.4356 118.871 97.4356Z" fill="white"/>
<path d="M118.871 106.21C121.294 106.21 123.258 104.246 123.258 101.823C123.258 99.3998 121.294 97.4355 118.871 97.4355C116.448 97.4355 114.484 99.3998 114.484 101.823C114.484 104.246 116.448 106.21 118.871 106.21Z" fill="white"/>
<path d="M118.871 114.984C121.294 114.984 123.258 113.02 123.258 110.597C123.258 108.174 121.294 106.21 118.871 106.21C116.448 106.21 114.484 108.174 114.484 110.597C114.484 113.02 116.448 114.984 118.871 114.984Z" fill="white"/>
<path d="M118.871 132.534C121.294 132.534 123.258 130.57 123.258 128.147C123.258 125.724 121.294 123.76 118.871 123.76C116.448 123.76 114.484 125.724 114.484 128.147C114.484 130.57 116.448 132.534 118.871 132.534Z" fill="white"/>
<path d="M118.871 150.082C121.294 150.082 123.258 148.118 123.258 145.695C123.258 143.272 121.294 141.308 118.871 141.308C116.448 141.308 114.484 143.272 114.484 145.695C114.484 148.118 116.448 150.082 118.871 150.082Z" fill="white"/>
<path d="M118.871 176.405C121.294 176.405 123.258 174.441 123.258 172.018C123.258 169.595 121.294 167.631 118.871 167.631C116.448 167.631 114.484 169.595 114.484 172.018C114.484 174.441 116.448 176.405 118.871 176.405Z" fill="white"/>
<path d="M118.871 185.18C121.294 185.18 123.258 183.215 123.258 180.792C123.258 178.369 121.294 176.405 118.871 176.405C116.448 176.405 114.484 178.369 114.484 180.792C114.484 183.215 116.448 185.18 118.871 185.18Z" fill="white"/>
<path d="M118.871 202.729C121.294 202.729 123.258 200.764 123.258 198.341C123.258 195.918 121.294 193.954 118.871 193.954C116.448 193.954 114.484 195.918 114.484 198.341C114.484 200.764 116.448 202.729 118.871 202.729Z" fill="white"/>
<path d="M118.871 220.277C121.294 220.277 123.258 218.313 123.258 215.89C123.258 213.467 121.294 211.503 118.871 211.503C116.448 211.503 114.484 213.467 114.484 215.89C114.484 218.313 116.448 220.277 118.871 220.277Z" fill="white"/>
<path d="M118.871 229.052C121.294 229.052 123.258 227.088 123.258 224.665C123.258 222.242 121.294 220.277 118.871 220.277C116.448 220.277 114.484 222.242 114.484 224.665C114.484 227.088 116.448 229.052 118.871 229.052Z" fill="white"/>
<path d="M118.871 246.601C121.294 246.601 123.258 244.636 123.258 242.213C123.258 239.79 121.294 237.826 118.871 237.826C116.448 237.826 114.484 239.79 114.484 242.213C114.484 244.636 116.448 246.601 118.871 246.601Z" fill="white"/>
<path d="M118.871 255.375C121.294 255.375 123.258 253.411 123.258 250.988C123.258 248.565 121.294 246.601 118.871 246.601C116.448 246.601 114.484 248.565 114.484 250.988C114.484 253.411 116.448 255.375 118.871 255.375Z" fill="white"/>
<path d="M127.645 27.2402C130.068 27.2402 132.032 25.276 132.032 22.853C132.032 20.43 130.068 18.4658 127.645 18.4658C125.222 18.4658 123.258 20.43 123.258 22.853C123.258 25.276 125.222 27.2402 127.645 27.2402Z" fill="white"/>
<path d="M127.645 36.0147C130.068 36.0147 132.032 34.0504 132.032 31.6274C132.032 29.2045 130.068 27.2402 127.645 27.2402C125.222 27.2402 123.258 29.2045 123.258 31.6274C123.258 34.0504 125.222 36.0147 127.645 36.0147Z" fill="white"/>
<path d="M127.645 62.3379C130.068 62.3379 132.032 60.3737 132.032 57.9507C132.032 55.5277 130.068 53.5635 127.645 53.5635C125.222 53.5635 123.258 55.5277 123.258 57.9507C123.258 60.3737 125.222 62.3379 127.645 62.3379Z" fill="white"/>
<path d="M127.645 114.984C130.068 114.984 132.032 113.02 132.032 110.597C132.032 108.174 130.068 106.21 127.645 106.21C125.222 106.21 123.258 108.174 123.258 110.597C123.258 113.02 125.222 114.984 127.645 114.984Z" fill="white"/>
<path d="M127.645 123.759C130.068 123.759 132.032 121.795 132.032 119.372C132.032 116.949 130.068 114.984 127.645 114.984C125.222 114.984 123.258 116.949 123.258 119.372C123.258 121.795 125.222 123.759 127.645 123.759Z" fill="white"/>
<path d="M127.645 132.534C130.068 132.534 132.032 130.57 132.032 128.147C132.032 125.724 130.068 123.76 127.645 123.76C125.222 123.76 123.258 125.724 123.258 128.147C123.258 130.57 125.222 132.534 127.645 132.534Z" fill="white"/>
<path d="M127.645 150.082C130.068 150.082 132.032 148.118 132.032 145.695C132.032 143.272 130.068 141.308 127.645 141.308C125.222 141.308 123.258 143.272 123.258 145.695C123.258 148.118 125.222 150.082 127.645 150.082Z" fill="white"/>
<path d="M127.645 167.631C130.068 167.631 132.032 165.667 132.032 163.244C132.032 160.821 130.068 158.856 127.645 158.856C125.222 158.856 123.258 160.821 123.258 163.244C123.258 165.667 125.222 167.631 127.645 167.631Z" fill="white"/>
<path d="M127.645 185.18C130.068 185.18 132.032 183.215 132.032 180.792C132.032 178.369 130.068 176.405 127.645 176.405C125.222 176.405 123.258 178.369 123.258 180.792C123.258 183.215 125.222 185.18 127.645 185.18Z" fill="white"/>
<path d="M127.645 193.954C130.068 193.954 132.032 191.99 132.032 189.567C132.032 187.144 130.068 185.18 127.645 185.18C125.222 185.18 123.258 187.144 123.258 189.567C123.258 191.99 125.222 193.954 127.645 193.954Z" fill="white"/>
<path d="M127.645 211.503C130.068 211.503 132.032 209.539 132.032 207.116C132.032 204.693 130.068 202.729 127.645 202.729C125.222 202.729 123.258 204.693 123.258 207.116C123.258 209.539 125.222 211.503 127.645 211.503Z" fill="white"/>
<path d="M136.419 18.4658C138.842 18.4658 140.807 16.5016 140.807 14.0786C140.807 11.6556 138.842 9.69141 136.419 9.69141C133.996 9.69141 132.032 11.6556 132.032 14.0786C132.032 16.5016 133.996 18.4658 136.419 18.4658Z" fill="white"/>
<path d="M136.419 36.0147C138.842 36.0147 140.807 34.0504 140.807 31.6274C140.807 29.2045 138.842 27.2402 136.419 27.2402C133.996 27.2402 132.032 29.2045 132.032 31.6274C132.032 34.0504 133.996 36.0147 136.419 36.0147Z" fill="white"/>
<path d="M136.419 44.7891C138.842 44.7891 140.807 42.8249 140.807 40.4019C140.807 37.9789 138.842 36.0146 136.419 36.0146C133.996 36.0146 132.032 37.9789 132.032 40.4019C132.032 42.8249 133.996 44.7891 136.419 44.7891Z" fill="white"/>
<path d="M136.419 71.1123C138.842 71.1123 140.807 69.1481 140.807 66.7251C140.807 64.3021 138.842 62.3379 136.419 62.3379C133.996 62.3379 132.032 64.3021 132.032 66.7251C132.032 69.1481 133.996 71.1123 136.419 71.1123Z" fill="white"/>
<path d="M136.419 97.4356C138.842 97.4356 140.807 95.4713 140.807 93.0483C140.807 90.6254 138.842 88.6611 136.419 88.6611C133.996 88.6611 132.032 90.6254 132.032 93.0483C132.032 95.4713 133.996 97.4356 136.419 97.4356Z" fill="white"/>
<path d="M136.419 114.984C138.842 114.984 140.807 113.02 140.807 110.597C140.807 108.174 138.842 106.21 136.419 106.21C133.996 106.21 132.032 108.174 132.032 110.597C132.032 113.02 133.996 114.984 136.419 114.984Z" fill="white"/>
<path d="M136.419 123.759C138.842 123.759 140.807 121.795 140.807 119.372C140.807 116.949 138.842 114.984 136.419 114.984C133.996 114.984 132.032 116.949 132.032 119.372C132.032 121.795 133.996 123.759 136.419 123.759Z" fill="white"/>
<path d="M136.419 141.308C138.842 141.308 140.807 139.343 140.807 136.92C140.807 134.497 138.842 132.533 136.419 132.533C133.996 132.533 132.032 134.497 132.032 136.92C132.032 139.343 133.996 141.308 136.419 141.308Z" fill="white"/>
<path d="M136.419 176.405C138.842 176.405 140.807 174.441 140.807 172.018C140.807 169.595 138.842 167.631 136.419 167.631C133.996 167.631 132.032 169.595 132.032 172.018C132.032 174.441 133.996 176.405 136.419 176.405Z" fill="white"/>
<path d="M136.419 193.954C138.842 193.954 140.807 191.99 140.807 189.567C140.807 187.144 138.842 185.18 136.419 185.18C133.996 185.18 132.032 187.144 132.032 189.567C132.032 191.99 133.996 193.954 136.419 193.954Z" fill="white"/>
<path d="M136.419 202.729C138.842 202.729 140.807 200.764 140.807 198.341C140.807 195.918 138.842 193.954 136.419 193.954C133.996 193.954 132.032 195.918 132.032 198.341C132.032 200.764 133.996 202.729 136.419 202.729Z" fill="white"/>
<path d="M136.419 220.277C138.842 220.277 140.807 218.313 140.807 215.89C140.807 213.467 138.842 211.503 136.419 211.503C133.996 211.503 132.032 213.467 132.032 215.89C132.032 218.313 133.996 220.277 136.419 220.277Z" fill="white"/>
<path d="M136.419 229.052C138.842 229.052 140.807 227.088 140.807 224.665C140.807 222.242 138.842 220.277 136.419 220.277C133.996 220.277 132.032 222.242 132.032 224.665C132.032 227.088 133.996 229.052 136.419 229.052Z" fill="white"/>
<path d="M136.419 237.826C138.842 237.826 140.807 235.862 140.807 233.439C140.807 231.016 138.842 229.052 136.419 229.052C133.996 229.052 132.032 231.016 132.032 233.439C132.032 235.862 133.996 237.826 136.419 237.826Z" fill="white"/>
<path d="M136.419 246.601C138.842 246.601 140.807 244.636 140.807 242.213C140.807 239.79 138.842 237.826 136.419 237.826C133.996 237.826 132.032 239.79 132.032 242.213C132.032 244.636 133.996 246.601 136.419 246.601Z" fill="white"/>
<path d="M136.419 255.375C138.842 255.375 140.807 253.411 140.807 250.988C140.807 248.565 138.842 246.601 136.419 246.601C133.996 246.601 132.032 248.565 132.032 250.988C132.032 253.411 133.996 255.375 136.419 255.375Z" fill="white"/>
<path d="M145.194 9.69142C147.617 9.69142 149.581 7.7272 149.581 5.3042C149.581 2.88121 147.617 0.916992 145.194 0.916992C142.771 0.916992 140.807 2.88121 140.807 5.3042C140.807 7.7272 142.771 9.69142 145.194 9.69142Z" fill="white"/>
<path d="M145.194 18.4658C147.617 18.4658 149.581 16.5016 149.581 14.0786C149.581 11.6556 147.617 9.69141 145.194 9.69141C142.771 9.69141 140.807 11.6556 140.807 14.0786C140.807 16.5016 142.771 18.4658 145.194 18.4658Z" fill="white"/>
<path d="M145.194 44.7891C147.617 44.7891 149.581 42.8249 149.581 40.4019C149.581 37.9789 147.617 36.0146 145.194 36.0146C142.771 36.0146 140.807 37.9789 140.807 40.4019C140.807 42.8249 142.771 44.7891 145.194 44.7891Z" fill="white"/>
<path d="M145.194 62.3379C147.617 62.3379 149.581 60.3737 149.581 57.9507C149.581 55.5277 147.617 53.5635 145.194 53.5635C142.771 53.5635 140.807 55.5277 140.807 57.9507C140.807 60.3737 142.771 62.3379 145.194 62.3379Z" fill="white"/>
<path d="M145.194 71.1123C147.617 71.1123 149.581 69.1481 149.581 66.7251C149.581 64.3021 147.617 62.3379 145.194 62.3379C142.771 62.3379 140.807 64.3021 140.807 66.7251C140.807 69.1481 142.771 71.1123 145.194 71.1123Z" fill="white"/>
<path d="M145.194 97.4356C147.617 97.4356 149.581 95.4713 149.581 93.0483C149.581 90.6254 147.617 88.6611 145.194 88.6611C142.771 88.6611 140.807 90.6254 140.807 93.0483C140.807 95.4713 142.771 97.4356 145.194 97.4356Z" fill="white"/>
<path d="M145.194 132.534C147.617 132.534 149.581 130.57 149.581 128.147C149.581 125.724 147.617 123.76 145.194 123.76C142.771 123.76 140.807 125.724 140.807 128.147C140.807 130.57 142.771 132.534 145.194 132.534Z" fill="white"/>
<path d="M145.194 167.631C147.617 167.631 149.581 165.667 149.581 163.244C149.581 160.821 147.617 158.856 145.194 158.856C142.771 158.856 140.807 160.821 140.807 163.244C140.807 165.667 142.771 167.631 145.194 167.631Z" fill="white"/>
<path d="M145.194 185.18C147.617 185.18 149.581 183.215 149.581 180.792C149.581 178.369 147.617 176.405 145.194 176.405C142.771 176.405 140.807 178.369 140.807 180.792C140.807 183.215 142.771 185.18 145.194 185.18Z" fill="white"/>
<path d="M145.194 193.954C147.617 193.954 149.581 191.99 149.581 189.567C149.581 187.144 147.617 185.18 145.194 185.18C142.771 185.18 140.807 187.144 140.807 189.567C140.807 191.99 142.771 193.954 145.194 193.954Z" fill="white"/>
<path d="M145.194 220.277C147.617 220.277 149.581 218.313 149.581 215.89C149.581 213.467 147.617 211.503 145.194 211.503C142.771 211.503 140.807 213.467 140.807 215.89C140.807 218.313 142.771 220.277 145.194 220.277Z" fill="white"/>
<path d="M145.194 229.052C147.617 229.052 149.581 227.088 149.581 224.665C149.581 222.242 147.617 220.277 145.194 220.277C142.771 220.277 140.807 222.242 140.807 224.665C140.807 227.088 142.771 229.052 145.194 229.052Z" fill="white"/>
<path d="M145.194 237.826C147.617 237.826 149.581 235.862 149.581 233.439C149.581 231.016 147.617 229.052 145.194 229.052C142.771 229.052 140.807 231.016 140.807 233.439C140.807 235.862 142.771 237.826 145.194 237.826Z" fill="white"/>
<path d="M153.968 9.69142C156.391 9.69142 158.355 7.7272 158.355 5.3042C158.355 2.88121 156.391 0.916992 153.968 0.916992C151.545 0.916992 149.581 2.88121 149.581 5.3042C149.581 7.7272 151.545 9.69142 153.968 9.69142Z" fill="white"/>
<path d="M153.968 44.7891C156.391 44.7891 158.355 42.8249 158.355 40.4019C158.355 37.9789 156.391 36.0146 153.968 36.0146C151.545 36.0146 149.581 37.9789 149.581 40.4019C149.581 42.8249 151.545 44.7891 153.968 44.7891Z" fill="white"/>
<path d="M153.968 88.6611C156.391 88.6611 158.355 86.6969 158.355 84.2739C158.355 81.8509 156.391 79.8867 153.968 79.8867C151.545 79.8867 149.581 81.8509 149.581 84.2739C149.581 86.6969 151.545 88.6611 153.968 88.6611Z" fill="white"/>
<path d="M153.968 97.4356C156.391 97.4356 158.355 95.4713 158.355 93.0483C158.355 90.6254 156.391 88.6611 153.968 88.6611C151.545 88.6611 149.581 90.6254 149.581 93.0483C149.581 95.4713 151.545 97.4356 153.968 97.4356Z" fill="white"/>
<path d="M153.968 106.21C156.391 106.21 158.355 104.246 158.355 101.823C158.355 99.3998 156.391 97.4355 153.968 97.4355C151.545 97.4355 149.581 99.3998 149.581 101.823C149.581 104.246 151.545 106.21 153.968 106.21Z" fill="white"/>
<path d="M153.968 114.984C156.391 114.984 158.355 113.02 158.355 110.597C158.355 108.174 156.391 106.21 153.968 106.21C151.545 106.21 149.581 108.174 149.581 110.597C149.581 113.02 151.545 114.984 153.968 114.984Z" fill="white"/>
<path d="M153.968 132.534C156.391 132.534 158.355 130.57 158.355 128.147C158.355 125.724 156.391 123.76 153.968 123.76C151.545 123.76 149.581 125.724 149.581 128.147C149.581 130.57 151.545 132.534 153.968 132.534Z" fill="white"/>
<path d="M153.968 150.082C156.391 150.082 158.355 148.118 158.355 145.695C158.355 143.272 156.391 141.308 153.968 141.308C151.545 141.308 149.581 143.272 149.581 145.695C149.581 148.118 151.545 150.082 153.968 150.082Z" fill="white"/>
<path d="M153.968 193.954C156.391 193.954 158.355 191.99 158.355 189.567C158.355 187.144 156.391 185.18 153.968 185.18C151.545 185.18 149.581 187.144 149.581 189.567C149.581 191.99 151.545 193.954 153.968 193.954Z" fill="white"/>
<path d="M153.968 220.277C156.391 220.277 158.355 218.313 158.355 215.89C158.355 213.467 156.391 211.503 153.968 211.503C151.545 211.503 149.581 213.467 149.581 215.89C149.581 218.313 151.545 220.277 153.968 220.277Z" fill="white"/>
<path d="M153.968 229.052C156.391 229.052 158.355 227.088 158.355 224.665C158.355 222.242 156.391 220.277 153.968 220.277C151.545 220.277 149.581 222.242 149.581 224.665C149.581 227.088 151.545 229.052 153.968 229.052Z" fill="white"/>
<path d="M153.968 237.826C156.391 237.826 158.355 235.862 158.355 233.439C158.355 231.016 156.391 229.052 153.968 229.052C151.545 229.052 149.581 231.016 149.581 233.439C149.581 235.862 151.545 237.826 153.968 237.826Z" fill="white"/>
<path d="M153.968 255.375C156.391 255.375 158.355 253.411 158.355 250.988C158.355 248.565 156.391 246.601 153.968 246.601C151.545 246.601 149.581 248.565 149.581 250.988C149.581 253.411 151.545 255.375 153.968 255.375Z" fill="white"/>
<path d="M162.744 9.69142C165.167 9.69142 167.131 7.7272 167.131 5.3042C167.131 2.88121 165.167 0.916992 162.744 0.916992C160.321 0.916992 158.356 2.88121 158.356 5.3042C158.356 7.7272 160.321 9.69142 162.744 9.69142Z" fill="white"/>
<path d="M162.744 18.4658C165.167 18.4658 167.131 16.5016 167.131 14.0786C167.131 11.6556 165.167 9.69141 162.744 9.69141C160.321 9.69141 158.356 11.6556 158.356 14.0786C158.356 16.5016 160.321 18.4658 162.744 18.4658Z" fill="white"/>
<path d="M162.744 44.7891C165.167 44.7891 167.131 42.8249 167.131 40.4019C167.131 37.9789 165.167 36.0146 162.744 36.0146C160.321 36.0146 158.356 37.9789 158.356 40.4019C158.356 42.8249 160.321 44.7891 162.744 44.7891Z" fill="white"/>
<path d="M162.744 53.5635C165.167 53.5635 167.131 51.5993 167.131 49.1763C167.131 46.7533 165.167 44.7891 162.744 44.7891C160.321 44.7891 158.356 46.7533 158.356 49.1763C158.356 51.5993 160.321 53.5635 162.744 53.5635Z" fill="white"/>
<path d="M162.744 62.3379C165.167 62.3379 167.131 60.3737 167.131 57.9507C167.131 55.5277 165.167 53.5635 162.744 53.5635C160.321 53.5635 158.356 55.5277 158.356 57.9507C158.356 60.3737 160.321 62.3379 162.744 62.3379Z" fill="white"/>
<path d="M162.744 71.1123C165.167 71.1123 167.131 69.1481 167.131 66.7251C167.131 64.3021 165.167 62.3379 162.744 62.3379C160.321 62.3379 158.356 64.3021 158.356 66.7251C158.356 69.1481 160.321 71.1123 162.744 71.1123Z" fill="white"/>
<path d="M162.744 97.4356C165.167 97.4356 167.131 95.4713 167.131 93.0483C167.131 90.6254 165.167 88.6611 162.744 88.6611C160.321 88.6611 158.356 90.6254 158.356 93.0483C158.356 95.4713 160.321 97.4356 162.744 97.4356Z" fill="white"/>
<path d="M162.744 123.759C165.167 123.759 167.131 121.795 167.131 119.372C167.131 116.949 165.167 114.984 162.744 114.984C160.321 114.984 158.356 116.949 158.356 119.372C158.356 121.795 160.321 123.759 162.744 123.759Z" fill="white"/>
<path d="M162.744 150.082C165.167 150.082 167.131 148.118 167.131 145.695C167.131 143.272 165.167 141.308 162.744 141.308C160.321 141.308 158.356 143.272 158.356 145.695C158.356 148.118 160.321 150.082 162.744 150.082Z" fill="white"/>
<path d="M162.744 158.856C165.167 158.856 167.131 156.892 167.131 154.469C167.131 152.046 165.167 150.082 162.744 150.082C160.321 150.082 158.356 152.046 158.356 154.469C158.356 156.892 160.321 158.856 162.744 158.856Z" fill="white"/>
<path d="M162.744 167.631C165.167 167.631 167.131 165.667 167.131 163.244C167.131 160.821 165.167 158.856 162.744 158.856C160.321 158.856 158.356 160.821 158.356 163.244C158.356 165.667 160.321 167.631 162.744 167.631Z" fill="white"/>
<path d="M162.744 176.405C165.167 176.405 167.131 174.441 167.131 172.018C167.131 169.595 165.167 167.631 162.744 167.631C160.321 167.631 158.356 169.595 158.356 172.018C158.356 174.441 160.321 176.405 162.744 176.405Z" fill="white"/>
<path d="M162.744 211.503C165.167 211.503 167.131 209.539 167.131 207.116C167.131 204.693 165.167 202.729 162.744 202.729C160.321 202.729 158.356 204.693 158.356 207.116C158.356 209.539 160.321 211.503 162.744 211.503Z" fill="white"/>
<path d="M162.744 229.052C165.167 229.052 167.131 227.088 167.131 224.665C167.131 222.242 165.167 220.277 162.744 220.277C160.321 220.277 158.356 222.242 158.356 224.665C158.356 227.088 160.321 229.052 162.744 229.052Z" fill="white"/>
<path d="M162.744 255.375C165.167 255.375 167.131 253.411 167.131 250.988C167.131 248.565 165.167 246.601 162.744 246.601C160.321 246.601 158.356 248.565 158.356 250.988C158.356 253.411 160.321 255.375 162.744 255.375Z" fill="white"/>
<path d="M171.517 9.69142C173.94 9.69142 175.904 7.7272 175.904 5.3042C175.904 2.88121 173.94 0.916992 171.517 0.916992C169.094 0.916992 167.13 2.88121 167.13 5.3042C167.13 7.7272 169.094 9.69142 171.517 9.69142Z" fill="white"/>
<path d="M171.517 44.7891C173.94 44.7891 175.904 42.8249 175.904 40.4019C175.904 37.9789 173.94 36.0146 171.517 36.0146C169.094 36.0146 167.13 37.9789 167.13 40.4019C167.13 42.8249 169.094 44.7891 171.517 44.7891Z" fill="white"/>
<path d="M171.517 71.1123C173.94 71.1123 175.904 69.1481 175.904 66.7251C175.904 64.3021 173.94 62.3379 171.517 62.3379C169.094 62.3379 167.13 64.3021 167.13 66.7251C167.13 69.1481 169.094 71.1123 171.517 71.1123Z" fill="white"/>
<path d="M171.517 79.8867C173.94 79.8867 175.904 77.9225 175.904 75.4995C175.904 73.0765 173.94 71.1123 171.517 71.1123C169.094 71.1123 167.13 73.0765 167.13 75.4995C167.13 77.9225 169.094 79.8867 171.517 79.8867Z" fill="white"/>
<path d="M171.517 88.6611C173.94 88.6611 175.904 86.6969 175.904 84.2739C175.904 81.8509 173.94 79.8867 171.517 79.8867C169.094 79.8867 167.13 81.8509 167.13 84.2739C167.13 86.6969 169.094 88.6611 171.517 88.6611Z" fill="white"/>
<path d="M171.517 114.984C173.94 114.984 175.904 113.02 175.904 110.597C175.904 108.174 173.94 106.21 171.517 106.21C169.094 106.21 167.13 108.174 167.13 110.597C167.13 113.02 169.094 114.984 171.517 114.984Z" fill="white"/>
<path d="M171.517 123.759C173.94 123.759 175.904 121.795 175.904 119.372C175.904 116.949 173.94 114.984 171.517 114.984C169.094 114.984 167.13 116.949 167.13 119.372C167.13 121.795 169.094 123.759 171.517 123.759Z" fill="white"/>
<path d="M171.517 132.534C173.94 132.534 175.904 130.57 175.904 128.147C175.904 125.724 173.94 123.76 171.517 123.76C169.094 123.76 167.13 125.724 167.13 128.147C167.13 130.57 169.094 132.534 171.517 132.534Z" fill="white"/>
<path d="M171.517 141.308C173.94 141.308 175.904 139.343 175.904 136.92C175.904 134.497 173.94 132.533 171.517 132.533C169.094 132.533 167.13 134.497 167.13 136.92C167.13 139.343 169.094 141.308 171.517 141.308Z" fill="white"/>
<path d="M171.517 150.082C173.94 150.082 175.904 148.118 175.904 145.695C175.904 143.272 173.94 141.308 171.517 141.308C169.094 141.308 167.13 143.272 167.13 145.695C167.13 148.118 169.094 150.082 171.517 150.082Z" fill="white"/>
<path d="M171.517 167.631C173.94 167.631 175.904 165.667 175.904 163.244C175.904 160.821 173.94 158.856 171.517 158.856C169.094 158.856 167.13 160.821 167.13 163.244C167.13 165.667 169.094 167.631 171.517 167.631Z" fill="white"/>
<path d="M171.517 193.954C173.94 193.954 175.904 191.99 175.904 189.567C175.904 187.144 173.94 185.18 171.517 185.18C169.094 185.18 167.13 187.144 167.13 189.567C167.13 191.99 169.094 193.954 171.517 193.954Z" fill="white"/>
<path d="M171.517 202.729C173.94 202.729 175.904 200.764 175.904 198.341C175.904 195.918 173.94 193.954 171.517 193.954C169.094 193.954 167.13 195.918 167.13 198.341C167.13 200.764 169.094 202.729 171.517 202.729Z" fill="white"/>
<path d="M171.517 211.503C173.94 211.503 175.904 209.539 175.904 207.116C175.904 204.693 173.94 202.729 171.517 202.729C169.094 202.729 167.13 204.693 167.13 207.116C167.13 209.539 169.094 211.503 171.517 211.503Z" fill="white"/>
<path d="M171.517 229.052C173.94 229.052 175.904 227.088 175.904 224.665C175.904 222.242 173.94 220.277 171.517 220.277C169.094 220.277 167.13 222.242 167.13 224.665C167.13 227.088 169.094 229.052 171.517 229.052Z" fill="white"/>
<path d="M171.517 246.601C173.94 246.601 175.904 244.636 175.904 242.213C175.904 239.79 173.94 237.826 171.517 237.826C169.094 237.826 167.13 239.79 167.13 242.213C167.13 244.636 169.094 246.601 171.517 246.601Z" fill="white"/>
<path d="M180.291 9.69142C182.714 9.69142 184.678 7.7272 184.678 5.3042C184.678 2.88121 182.714 0.916992 180.291 0.916992C177.868 0.916992 175.904 2.88121 175.904 5.3042C175.904 7.7272 177.868 9.69142 180.291 9.69142Z" fill="white"/>
<path d="M180.291 27.2402C182.714 27.2402 184.678 25.276 184.678 22.853C184.678 20.43 182.714 18.4658 180.291 18.4658C177.868 18.4658 175.904 20.43 175.904 22.853C175.904 25.276 177.868 27.2402 180.291 27.2402Z" fill="white"/>
<path d="M180.291 62.3379C182.714 62.3379 184.678 60.3737 184.678 57.9507C184.678 55.5277 182.714 53.5635 180.291 53.5635C177.868 53.5635 175.904 55.5277 175.904 57.9507C175.904 60.3737 177.868 62.3379 180.291 62.3379Z" fill="white"/>
<path d="M180.291 71.1123C182.714 71.1123 184.678 69.1481 184.678 66.7251C184.678 64.3021 182.714 62.3379 180.291 62.3379C177.868 62.3379 175.904 64.3021 175.904 66.7251C175.904 69.1481 177.868 71.1123 180.291 71.1123Z" fill="white"/>
<path d="M180.291 79.8867C182.714 79.8867 184.678 77.9225 184.678 75.4995C184.678 73.0765 182.714 71.1123 180.291 71.1123C177.868 71.1123 175.904 73.0765 175.904 75.4995C175.904 77.9225 177.868 79.8867 180.291 79.8867Z" fill="white"/>
<path d="M180.291 88.6611C182.714 88.6611 184.678 86.6969 184.678 84.2739C184.678 81.8509 182.714 79.8867 180.291 79.8867C177.868 79.8867 175.904 81.8509 175.904 84.2739C175.904 86.6969 177.868 88.6611 180.291 88.6611Z" fill="white"/>
<path d="M180.291 97.4356C182.714 97.4356 184.678 95.4713 184.678 93.0483C184.678 90.6254 182.714 88.6611 180.291 88.6611C177.868 88.6611 175.904 90.6254 175.904 93.0483C175.904 95.4713 177.868 97.4356 180.291 97.4356Z" fill="white"/>
<path d="M180.291 132.534C182.714 132.534 184.678 130.57 184.678 128.147C184.678 125.724 182.714 123.76 180.291 123.76C177.868 123.76 175.904 125.724 175.904 128.147C175.904 130.57 177.868 132.534 180.291 132.534Z" fill="white"/>
<path d="M180.291 158.856C182.714 158.856 184.678 156.892 184.678 154.469C184.678 152.046 182.714 150.082 180.291 150.082C177.868 150.082 175.904 152.046 175.904 154.469C175.904 156.892 177.868 158.856 180.291 158.856Z" fill="white"/>
<path d="M180.291 185.18C182.714 185.18 184.678 183.215 184.678 180.792C184.678 178.369 182.714 176.405 180.291 176.405C177.868 176.405 175.904 178.369 175.904 180.792C175.904 183.215 177.868 185.18 180.291 185.18Z" fill="white"/>
<path d="M180.291 193.954C182.714 193.954 184.678 191.99 184.678 189.567C184.678 187.144 182.714 185.18 180.291 185.18C177.868 185.18 175.904 187.144 175.904 189.567C175.904 191.99 177.868 193.954 180.291 193.954Z" fill="white"/>
<path d="M180.291 202.729C182.714 202.729 184.678 200.764 184.678 198.341C184.678 195.918 182.714 193.954 180.291 193.954C177.868 193.954 175.904 195.918 175.904 198.341C175.904 200.764 177.868 202.729 180.291 202.729Z" fill="white"/>
<path d="M180.291 211.503C182.714 211.503 184.678 209.539 184.678 207.116C184.678 204.693 182.714 202.729 180.291 202.729C177.868 202.729 175.904 204.693 175.904 207.116C175.904 209.539 177.868 211.503 180.291 211.503Z" fill="white"/>
<path d="M180.291 220.277C182.714 220.277 184.678 218.313 184.678 215.89C184.678 213.467 182.714 211.503 180.291 211.503C177.868 211.503 175.904 213.467 175.904 215.89C175.904 218.313 177.868 220.277 180.291 220.277Z" fill="white"/>
<path d="M180.291 237.826C182.714 237.826 184.678 235.862 184.678 233.439C184.678 231.016 182.714 229.052 180.291 229.052C177.868 229.052 175.904 231.016 175.904 233.439C175.904 235.862 177.868 237.826 180.291 237.826Z" fill="white"/>
<path d="M189.066 79.8867C191.489 79.8867 193.453 77.9225 193.453 75.4995C193.453 73.0765 191.489 71.1123 189.066 71.1123C186.643 71.1123 184.678 73.0765 184.678 75.4995C184.678 77.9225 186.643 79.8867 189.066 79.8867Z" fill="white"/>
<path d="M189.066 132.534C191.489 132.534 193.453 130.57 193.453 128.147C193.453 125.724 191.489 123.76 189.066 123.76C186.643 123.76 184.678 125.724 184.678 128.147C184.678 130.57 186.643 132.534 189.066 132.534Z" fill="white"/>
<path d="M189.066 141.308C191.489 141.308 193.453 139.343 193.453 136.92C193.453 134.497 191.489 132.533 189.066 132.533C186.643 132.533 184.678 134.497 184.678 136.92C184.678 139.343 186.643 141.308 189.066 141.308Z" fill="white"/>
<path d="M189.066 158.856C191.489 158.856 193.453 156.892 193.453 154.469C193.453 152.046 191.489 150.082 189.066 150.082C186.643 150.082 184.678 152.046 184.678 154.469C184.678 156.892 186.643 158.856 189.066 158.856Z" fill="white"/>
<path d="M189.066 167.631C191.489 167.631 193.453 165.667 193.453 163.244C193.453 160.821 191.489 158.856 189.066 158.856C186.643 158.856 184.678 160.821 184.678 163.244C184.678 165.667 186.643 167.631 189.066 167.631Z" fill="white"/>
<path d="M189.066 176.405C191.489 176.405 193.453 174.441 193.453 172.018C193.453 169.595 191.489 167.631 189.066 167.631C186.643 167.631 184.678 169.595 184.678 172.018C184.678 174.441 186.643 176.405 189.066 176.405Z" fill="white"/>
<path d="M189.066 185.18C191.489 185.18 193.453 183.215 193.453 180.792C193.453 178.369 191.489 176.405 189.066 176.405C186.643 176.405 184.678 178.369 184.678 180.792C184.678 183.215 186.643 185.18 189.066 185.18Z" fill="white"/>
<path d="M189.066 220.277C191.489 220.277 193.453 218.313 193.453 215.89C193.453 213.467 191.489 211.503 189.066 211.503C186.643 211.503 184.678 213.467 184.678 215.89C184.678 218.313 186.643 220.277 189.066 220.277Z" fill="white"/>
<path d="M189.066 229.052C191.489 229.052 193.453 227.088 193.453 224.665C193.453 222.242 191.489 220.277 189.066 220.277C186.643 220.277 184.678 222.242 184.678 224.665C184.678 227.088 186.643 229.052 189.066 229.052Z" fill="white"/>
<path d="M189.066 237.826C191.489 237.826 193.453 235.862 193.453 233.439C193.453 231.016 191.489 229.052 189.066 229.052C186.643 229.052 184.678 231.016 184.678 233.439C184.678 235.862 186.643 237.826 189.066 237.826Z" fill="white"/>
<path d="M197.84 79.8867C200.263 79.8867 202.227 77.9225 202.227 75.4995C202.227 73.0765 200.263 71.1123 197.84 71.1123C195.417 71.1123 193.453 73.0765 193.453 75.4995C193.453 77.9225 195.417 79.8867 197.84 79.8867Z" fill="white"/>
<path d="M197.84 141.308C200.263 141.308 202.227 139.343 202.227 136.92C202.227 134.497 200.263 132.533 197.84 132.533C195.417 132.533 193.453 134.497 193.453 136.92C193.453 139.343 195.417 141.308 197.84 141.308Z" fill="white"/>
<path d="M197.84 150.082C200.263 150.082 202.227 148.118 202.227 145.695C202.227 143.272 200.263 141.308 197.84 141.308C195.417 141.308 193.453 143.272 193.453 145.695C193.453 148.118 195.417 150.082 197.84 150.082Z" fill="white"/>
<path d="M197.84 158.856C200.263 158.856 202.227 156.892 202.227 154.469C202.227 152.046 200.263 150.082 197.84 150.082C195.417 150.082 193.453 152.046 193.453 154.469C193.453 156.892 195.417 158.856 197.84 158.856Z" fill="white"/>
<path d="M197.84 176.405C200.263 176.405 202.227 174.441 202.227 172.018C202.227 169.595 200.263 167.631 197.84 167.631C195.417 167.631 193.453 169.595 193.453 172.018C193.453 174.441 195.417 176.405 197.84 176.405Z" fill="white"/>
<path d="M197.84 185.18C200.263 185.18 202.227 183.215 202.227 180.792C202.227 178.369 200.263 176.405 197.84 176.405C195.417 176.405 193.453 178.369 193.453 180.792C193.453 183.215 195.417 185.18 197.84 185.18Z" fill="white"/>
<path d="M197.84 202.729C200.263 202.729 202.227 200.764 202.227 198.341C202.227 195.918 200.263 193.954 197.84 193.954C195.417 193.954 193.453 195.918 193.453 198.341C193.453 200.764 195.417 202.729 197.84 202.729Z" fill="white"/>
<path d="M197.84 220.277C200.263 220.277 202.227 218.313 202.227 215.89C202.227 213.467 200.263 211.503 197.84 211.503C195.417 211.503 193.453 213.467 193.453 215.89C193.453 218.313 195.417 220.277 197.84 220.277Z" fill="white"/>
<path d="M206.614 88.6611C209.037 88.6611 211.002 86.6969 211.002 84.2739C211.002 81.8509 209.037 79.8867 206.614 79.8867C204.191 79.8867 202.227 81.8509 202.227 84.2739C202.227 86.6969 204.191 88.6611 206.614 88.6611Z" fill="white"/>
<path d="M206.614 106.21C209.037 106.21 211.002 104.246 211.002 101.823C211.002 99.3998 209.037 97.4355 206.614 97.4355C204.191 97.4355 202.227 99.3998 202.227 101.823C202.227 104.246 204.191 106.21 206.614 106.21Z" fill="white"/>
<path d="M206.614 114.984C209.037 114.984 211.002 113.02 211.002 110.597C211.002 108.174 209.037 106.21 206.614 106.21C204.191 106.21 202.227 108.174 202.227 110.597C202.227 113.02 204.191 114.984 206.614 114.984Z" fill="white"/>
<path d="M206.614 123.759C209.037 123.759 211.002 121.795 211.002 119.372C211.002 116.949 209.037 114.984 206.614 114.984C204.191 114.984 202.227 116.949 202.227 119.372C202.227 121.795 204.191 123.759 206.614 123.759Z" fill="white"/>
<path d="M206.614 132.534C209.037 132.534 211.002 130.57 211.002 128.147C211.002 125.724 209.037 123.76 206.614 123.76C204.191 123.76 202.227 125.724 202.227 128.147C202.227 130.57 204.191 132.534 206.614 132.534Z" fill="white"/>
<path d="M206.614 141.308C209.037 141.308 211.002 139.343 211.002 136.92C211.002 134.497 209.037 132.533 206.614 132.533C204.191 132.533 202.227 134.497 202.227 136.92C202.227 139.343 204.191 141.308 206.614 141.308Z" fill="white"/>
<path d="M206.614 150.082C209.037 150.082 211.002 148.118 211.002 145.695C211.002 143.272 209.037 141.308 206.614 141.308C204.191 141.308 202.227 143.272 202.227 145.695C202.227 148.118 204.191 150.082 206.614 150.082Z" fill="white"/>
<path d="M206.614 158.856C209.037 158.856 211.002 156.892 211.002 154.469C211.002 152.046 209.037 150.082 206.614 150.082C204.191 150.082 202.227 152.046 202.227 154.469C202.227 156.892 204.191 158.856 206.614 158.856Z" fill="white"/>
<path d="M206.614 167.631C209.037 167.631 211.002 165.667 211.002 163.244C211.002 160.821 209.037 158.856 206.614 158.856C204.191 158.856 202.227 160.821 202.227 163.244C202.227 165.667 204.191 167.631 206.614 167.631Z" fill="white"/>
<path d="M206.614 176.405C209.037 176.405 211.002 174.441 211.002 172.018C211.002 169.595 209.037 167.631 206.614 167.631C204.191 167.631 202.227 169.595 202.227 172.018C202.227 174.441 204.191 176.405 206.614 176.405Z" fill="white"/>
<path d="M206.614 185.18C209.037 185.18 211.002 183.215 211.002 180.792C211.002 178.369 209.037 176.405 206.614 176.405C204.191 176.405 202.227 178.369 202.227 180.792C202.227 183.215 204.191 185.18 206.614 185.18Z" fill="white"/>
<path d="M206.614 220.277C209.037 220.277 211.002 218.313 211.002 215.89C211.002 213.467 209.037 211.503 206.614 211.503C204.191 211.503 202.227 213.467 202.227 215.89C202.227 218.313 204.191 220.277 206.614 220.277Z" fill="white"/>
<path d="M206.614 229.052C209.037 229.052 211.002 227.088 211.002 224.665C211.002 222.242 209.037 220.277 206.614 220.277C204.191 220.277 202.227 222.242 202.227 224.665C202.227 227.088 204.191 229.052 206.614 229.052Z" fill="white"/>
<path d="M206.614 255.375C209.037 255.375 211.002 253.411 211.002 250.988C211.002 248.565 209.037 246.601 206.614 246.601C204.191 246.601 202.227 248.565 202.227 250.988C202.227 253.411 204.191 255.375 206.614 255.375Z" fill="white"/>
<path d="M215.389 88.6611C217.812 88.6611 219.776 86.6969 219.776 84.2739C219.776 81.8509 217.812 79.8867 215.389 79.8867C212.966 79.8867 211.002 81.8509 211.002 84.2739C211.002 86.6969 212.966 88.6611 215.389 88.6611Z" fill="white"/>
<path d="M215.389 106.21C217.812 106.21 219.776 104.246 219.776 101.823C219.776 99.3998 217.812 97.4355 215.389 97.4355C212.966 97.4355 211.002 99.3998 211.002 101.823C211.002 104.246 212.966 106.21 215.389 106.21Z" fill="white"/>
<path d="M215.389 114.984C217.812 114.984 219.776 113.02 219.776 110.597C219.776 108.174 217.812 106.21 215.389 106.21C212.966 106.21 211.002 108.174 211.002 110.597C211.002 113.02 212.966 114.984 215.389 114.984Z" fill="white"/>
<path d="M215.389 158.856C217.812 158.856 219.776 156.892 219.776 154.469C219.776 152.046 217.812 150.082 215.389 150.082C212.966 150.082 211.002 152.046 211.002 154.469C211.002 156.892 212.966 158.856 215.389 158.856Z" fill="white"/>
<path d="M215.389 176.405C217.812 176.405 219.776 174.441 219.776 172.018C219.776 169.595 217.812 167.631 215.389 167.631C212.966 167.631 211.002 169.595 211.002 172.018C211.002 174.441 212.966 176.405 215.389 176.405Z" fill="white"/>
<path d="M215.389 185.18C217.812 185.18 219.776 183.215 219.776 180.792C219.776 178.369 217.812 176.405 215.389 176.405C212.966 176.405 211.002 178.369 211.002 180.792C211.002 183.215 212.966 185.18 215.389 185.18Z" fill="white"/>
<path d="M215.389 193.954C217.812 193.954 219.776 191.99 219.776 189.567C219.776 187.144 217.812 185.18 215.389 185.18C212.966 185.18 211.002 187.144 211.002 189.567C211.002 191.99 212.966 193.954 215.389 193.954Z" fill="white"/>
<path d="M215.389 202.729C217.812 202.729 219.776 200.764 219.776 198.341C219.776 195.918 217.812 193.954 215.389 193.954C212.966 193.954 211.002 195.918 211.002 198.341C211.002 200.764 212.966 202.729 215.389 202.729Z" fill="white"/>
<path d="M215.389 211.503C217.812 211.503 219.776 209.539 219.776 207.116C219.776 204.693 217.812 202.729 215.389 202.729C212.966 202.729 211.002 204.693 211.002 207.116C211.002 209.539 212.966 211.503 215.389 211.503Z" fill="white"/>
<path d="M215.389 220.277C217.812 220.277 219.776 218.313 219.776 215.89C219.776 213.467 217.812 211.503 215.389 211.503C212.966 211.503 211.002 213.467 211.002 215.89C211.002 218.313 212.966 220.277 215.389 220.277Z" fill="white"/>
<path d="M224.163 106.21C226.586 106.21 228.55 104.246 228.55 101.823C228.55 99.3998 226.586 97.4355 224.163 97.4355C221.74 97.4355 219.776 99.3998 219.776 101.823C219.776 104.246 221.74 106.21 224.163 106.21Z" fill="white"/>
<path d="M224.163 123.759C226.586 123.759 228.55 121.795 228.55 119.372C228.55 116.949 226.586 114.984 224.163 114.984C221.74 114.984 219.776 116.949 219.776 119.372C219.776 121.795 221.74 123.759 224.163 123.759Z" fill="white"/>
<path d="M224.163 158.856C226.586 158.856 228.55 156.892 228.55 154.469C228.55 152.046 226.586 150.082 224.163 150.082C221.74 150.082 219.776 152.046 219.776 154.469C219.776 156.892 221.74 158.856 224.163 158.856Z" fill="white"/>
<path d="M224.163 167.631C226.586 167.631 228.55 165.667 228.55 163.244C228.55 160.821 226.586 158.856 224.163 158.856C221.74 158.856 219.776 160.821 219.776 163.244C219.776 165.667 221.74 167.631 224.163 167.631Z" fill="white"/>
<path d="M224.163 176.405C226.586 176.405 228.55 174.441 228.55 172.018C228.55 169.595 226.586 167.631 224.163 167.631C221.74 167.631 219.776 169.595 219.776 172.018C219.776 174.441 221.74 176.405 224.163 176.405Z" fill="white"/>
<path d="M224.163 185.18C226.586 185.18 228.55 183.215 228.55 180.792C228.55 178.369 226.586 176.405 224.163 176.405C221.74 176.405 219.776 178.369 219.776 180.792C219.776 183.215 221.74 185.18 224.163 185.18Z" fill="white"/>
<path d="M224.163 211.503C226.586 211.503 228.55 209.539 228.55 207.116C228.55 204.693 226.586 202.729 224.163 202.729C221.74 202.729 219.776 204.693 219.776 207.116C219.776 209.539 221.74 211.503 224.163 211.503Z" fill="white"/>
<path d="M224.163 237.826C226.586 237.826 228.55 235.862 228.55 233.439C228.55 231.016 226.586 229.052 224.163 229.052C221.74 229.052 219.776 231.016 219.776 233.439C219.776 235.862 221.74 237.826 224.163 237.826Z" fill="white"/>
<path d="M224.163 246.601C226.586 246.601 228.55 244.636 228.55 242.213C228.55 239.79 226.586 237.826 224.163 237.826C221.74 237.826 219.776 239.79 219.776 242.213C219.776 244.636 221.74 246.601 224.163 246.601Z" fill="white"/>
<path d="M232.939 123.759C235.362 123.759 237.327 121.795 237.327 119.372C237.327 116.949 235.362 114.984 232.939 114.984C230.516 114.984 228.552 116.949 228.552 119.372C228.552 121.795 230.516 123.759 232.939 123.759Z" fill="white"/>
<path d="M232.939 141.308C235.362 141.308 237.327 139.343 237.327 136.92C237.327 134.497 235.362 132.533 232.939 132.533C230.516 132.533 228.552 134.497 228.552 136.92C228.552 139.343 230.516 141.308 232.939 141.308Z" fill="white"/>
<path d="M232.939 150.082C235.362 150.082 237.327 148.118 237.327 145.695C237.327 143.272 235.362 141.308 232.939 141.308C230.516 141.308 228.552 143.272 228.552 145.695C228.552 148.118 230.516 150.082 232.939 150.082Z" fill="white"/>
<path d="M232.939 167.631C235.362 167.631 237.327 165.667 237.327 163.244C237.327 160.821 235.362 158.856 232.939 158.856C230.516 158.856 228.552 160.821 228.552 163.244C228.552 165.667 230.516 167.631 232.939 167.631Z" fill="white"/>
<path d="M232.939 176.405C235.362 176.405 237.327 174.441 237.327 172.018C237.327 169.595 235.362 167.631 232.939 167.631C230.516 167.631 228.552 169.595 228.552 172.018C228.552 174.441 230.516 176.405 232.939 176.405Z" fill="white"/>
<path d="M232.939 185.18C235.362 185.18 237.327 183.215 237.327 180.792C237.327 178.369 235.362 176.405 232.939 176.405C230.516 176.405 228.552 178.369 228.552 180.792C228.552 183.215 230.516 185.18 232.939 185.18Z" fill="white"/>
<path d="M232.939 193.954C235.362 193.954 237.327 191.99 237.327 189.567C237.327 187.144 235.362 185.18 232.939 185.18C230.516 185.18 228.552 187.144 228.552 189.567C228.552 191.99 230.516 193.954 232.939 193.954Z" fill="white"/>
<path d="M232.939 202.729C235.362 202.729 237.327 200.764 237.327 198.341C237.327 195.918 235.362 193.954 232.939 193.954C230.516 193.954 228.552 195.918 228.552 198.341C228.552 200.764 230.516 202.729 232.939 202.729Z" fill="white"/>
<path d="M232.939 211.503C235.362 211.503 237.327 209.539 237.327 207.116C237.327 204.693 235.362 202.729 232.939 202.729C230.516 202.729 228.552 204.693 228.552 207.116C228.552 209.539 230.516 211.503 232.939 211.503Z" fill="white"/>
<path d="M232.939 220.277C235.362 220.277 237.327 218.313 237.327 215.89C237.327 213.467 235.362 211.503 232.939 211.503C230.516 211.503 228.552 213.467 228.552 215.89C228.552 218.313 230.516 220.277 232.939 220.277Z" fill="white"/>
<path d="M232.939 229.052C235.362 229.052 237.327 227.088 237.327 224.665C237.327 222.242 235.362 220.277 232.939 220.277C230.516 220.277 228.552 222.242 228.552 224.665C228.552 227.088 230.516 229.052 232.939 229.052Z" fill="white"/>
<path d="M232.939 246.601C235.362 246.601 237.327 244.636 237.327 242.213C237.327 239.79 235.362 237.826 232.939 237.826C230.516 237.826 228.552 239.79 228.552 242.213C228.552 244.636 230.516 246.601 232.939 246.601Z" fill="white"/>
<path d="M241.713 79.8867C244.136 79.8867 246.1 77.9225 246.1 75.4995C246.1 73.0765 244.136 71.1123 241.713 71.1123C239.29 71.1123 237.326 73.0765 237.326 75.4995C237.326 77.9225 239.29 79.8867 241.713 79.8867Z" fill="white"/>
<path d="M241.713 97.4356C244.136 97.4356 246.1 95.4713 246.1 93.0483C246.1 90.6254 244.136 88.6611 241.713 88.6611C239.29 88.6611 237.326 90.6254 237.326 93.0483C237.326 95.4713 239.29 97.4356 241.713 97.4356Z" fill="white"/>
<path d="M241.713 132.534C244.136 132.534 246.1 130.57 246.1 128.147C246.1 125.724 244.136 123.76 241.713 123.76C239.29 123.76 237.326 125.724 237.326 128.147C237.326 130.57 239.29 132.534 241.713 132.534Z" fill="white"/>
<path d="M241.713 150.082C244.136 150.082 246.1 148.118 246.1 145.695C246.1 143.272 244.136 141.308 241.713 141.308C239.29 141.308 237.326 143.272 237.326 145.695C237.326 148.118 239.29 150.082 241.713 150.082Z" fill="white"/>
<path d="M241.713 167.631C244.136 167.631 246.1 165.667 246.1 163.244C246.1 160.821 244.136 158.856 241.713 158.856C239.29 158.856 237.326 160.821 237.326 163.244C237.326 165.667 239.29 167.631 241.713 167.631Z" fill="white"/>
<path d="M241.713 185.18C244.136 185.18 246.1 183.215 246.1 180.792C246.1 178.369 244.136 176.405 241.713 176.405C239.29 176.405 237.326 178.369 237.326 180.792C237.326 183.215 239.29 185.18 241.713 185.18Z" fill="white"/>
<path d="M241.713 193.954C244.136 193.954 246.1 191.99 246.1 189.567C246.1 187.144 244.136 185.18 241.713 185.18C239.29 185.18 237.326 187.144 237.326 189.567C237.326 191.99 239.29 193.954 241.713 193.954Z" fill="white"/>
<path d="M241.713 220.277C244.136 220.277 246.1 218.313 246.1 215.89C246.1 213.467 244.136 211.503 241.713 211.503C239.29 211.503 237.326 213.467 237.326 215.89C237.326 218.313 239.29 220.277 241.713 220.277Z" fill="white"/>
<path d="M241.713 229.052C244.136 229.052 246.1 227.088 246.1 224.665C246.1 222.242 244.136 220.277 241.713 220.277C239.29 220.277 237.326 222.242 237.326 224.665C237.326 227.088 239.29 229.052 241.713 229.052Z" fill="white"/>
<path d="M241.713 237.826C244.136 237.826 246.1 235.862 246.1 233.439C246.1 231.016 244.136 229.052 241.713 229.052C239.29 229.052 237.326 231.016 237.326 233.439C237.326 235.862 239.29 237.826 241.713 237.826Z" fill="white"/>
<path d="M241.713 255.375C244.136 255.375 246.1 253.411 246.1 250.988C246.1 248.565 244.136 246.601 241.713 246.601C239.29 246.601 237.326 248.565 237.326 250.988C237.326 253.411 239.29 255.375 241.713 255.375Z" fill="white"/>
<path d="M250.487 88.6611C252.91 88.6611 254.874 86.6969 254.874 84.2739C254.874 81.8509 252.91 79.8867 250.487 79.8867C248.064 79.8867 246.1 81.8509 246.1 84.2739C246.1 86.6969 248.064 88.6611 250.487 88.6611Z" fill="white"/>
<path d="M250.487 97.4356C252.91 97.4356 254.874 95.4713 254.874 93.0483C254.874 90.6254 252.91 88.6611 250.487 88.6611C248.064 88.6611 246.1 90.6254 246.1 93.0483C246.1 95.4713 248.064 97.4356 250.487 97.4356Z" fill="white"/>
<path d="M250.487 106.21C252.91 106.21 254.874 104.246 254.874 101.823C254.874 99.3998 252.91 97.4355 250.487 97.4355C248.064 97.4355 246.1 99.3998 246.1 101.823C246.1 104.246 248.064 106.21 250.487 106.21Z" fill="white"/>
<path d="M250.487 114.984C252.91 114.984 254.874 113.02 254.874 110.597C254.874 108.174 252.91 106.21 250.487 106.21C248.064 106.21 246.1 108.174 246.1 110.597C246.1 113.02 248.064 114.984 250.487 114.984Z" fill="white"/>
<path d="M250.487 123.759C252.91 123.759 254.874 121.795 254.874 119.372C254.874 116.949 252.91 114.984 250.487 114.984C248.064 114.984 246.1 116.949 246.1 119.372C246.1 121.795 248.064 123.759 250.487 123.759Z" fill="white"/>
<path d="M250.487 141.308C252.91 141.308 254.874 139.343 254.874 136.92C254.874 134.497 252.91 132.533 250.487 132.533C248.064 132.533 246.1 134.497 246.1 136.92C246.1 139.343 248.064 141.308 250.487 141.308Z" fill="white"/>
<path d="M250.487 158.856C252.91 158.856 254.874 156.892 254.874 154.469C254.874 152.046 252.91 150.082 250.487 150.082C248.064 150.082 246.1 152.046 246.1 154.469C246.1 156.892 248.064 158.856 250.487 158.856Z" fill="white"/>
<path d="M250.487 176.405C252.91 176.405 254.874 174.441 254.874 172.018C254.874 169.595 252.91 167.631 250.487 167.631C248.064 167.631 246.1 169.595 246.1 172.018C246.1 174.441 248.064 176.405 250.487 176.405Z" fill="white"/>
<path d="M250.487 185.18C252.91 185.18 254.874 183.215 254.874 180.792C254.874 178.369 252.91 176.405 250.487 176.405C248.064 176.405 246.1 178.369 246.1 180.792C246.1 183.215 248.064 185.18 250.487 185.18Z" fill="white"/>
<path d="M250.487 193.954C252.91 193.954 254.874 191.99 254.874 189.567C254.874 187.144 252.91 185.18 250.487 185.18C248.064 185.18 246.1 187.144 246.1 189.567C246.1 191.99 248.064 193.954 250.487 193.954Z" fill="white"/>
<path d="M250.487 202.729C252.91 202.729 254.874 200.764 254.874 198.341C254.874 195.918 252.91 193.954 250.487 193.954C248.064 193.954 246.1 195.918 246.1 198.341C246.1 200.764 248.064 202.729 250.487 202.729Z" fill="white"/>
<path d="M250.487 220.277C252.91 220.277 254.874 218.313 254.874 215.89C254.874 213.467 252.91 211.503 250.487 211.503C248.064 211.503 246.1 213.467 246.1 215.89C246.1 218.313 248.064 220.277 250.487 220.277Z" fill="white"/>
<path d="M250.487 237.826C252.91 237.826 254.874 235.862 254.874 233.439C254.874 231.016 252.91 229.052 250.487 229.052C248.064 229.052 246.1 231.016 246.1 233.439C246.1 235.862 248.064 237.826 250.487 237.826Z" fill="white"/>
<path fill-rule="evenodd" clip-rule="evenodd" d="M0.415771 22.8531V40.4019C0.415771 46.2197 2.72689 51.7992 6.8407 55.913C10.9545 60.0269 16.534 62.338 22.3518 62.338H39.9007C45.7185 62.338 51.298 60.0269 55.4118 55.913C59.5256 51.7992 61.8367 46.2197 61.8367 40.4019V22.8531C61.8367 17.0352 59.5256 11.4557 55.4118 7.34192C51.298 3.22811 45.7185 0.916992 39.9007 0.916992H22.3518C16.534 0.916992 10.9545 3.22811 6.8407 7.34192C2.72689 11.4557 0.415771 17.0352 0.415771 22.8531ZM22.3518 9.69142H39.9007C43.3914 9.69142 46.7391 11.0781 49.2074 13.5464C51.6757 16.0147 53.0623 19.3624 53.0623 22.8531V40.4019C53.0623 43.8926 51.6757 47.2403 49.2074 49.7086C46.7391 52.1769 43.3914 53.5635 39.9007 53.5635H22.3518C18.8612 53.5635 15.5134 52.1769 13.0452 49.7086C10.5769 47.2403 9.1902 43.8926 9.1902 40.4019V22.8531C9.1902 19.3624 10.5769 16.0147 13.0452 13.5464C15.5134 11.0781 18.8612 9.69142 22.3518 9.69142Z" fill="white"/>
<path d="M22.3517 27.2402C24.7747 27.2402 26.7389 25.276 26.7389 22.853C26.7389 20.43 24.7747 18.4658 22.3517 18.4658C19.9287 18.4658 17.9645 20.43 17.9645 22.853C17.9645 25.276 19.9287 27.2402 22.3517 27.2402Z" fill="white"/>
<path d="M22.3517 36.0147C24.7747 36.0147 26.7389 34.0504 26.7389 31.6274C26.7389 29.2045 24.7747 27.2402 22.3517 27.2402C19.9287 27.2402 17.9645 29.2045 17.9645 31.6274C17.9645 34.0504 19.9287 36.0147 22.3517 36.0147Z" fill="white"/>
<path d="M22.3517 44.7891C24.7747 44.7891 26.7389 42.8249 26.7389 40.4019C26.7389 37.9789 24.7747 36.0146 22.3517 36.0146C19.9287 36.0146 17.9645 37.9789 17.9645 40.4019C17.9645 42.8249 19.9287 44.7891 22.3517 44.7891Z" fill="white"/>
<path d="M31.1261 27.2402C33.5491 27.2402 35.5133 25.276 35.5133 22.853C35.5133 20.43 33.5491 18.4658 31.1261 18.4658C28.7031 18.4658 26.7389 20.43 26.7389 22.853C26.7389 25.276 28.7031 27.2402 31.1261 27.2402Z" fill="white"/>
<path d="M31.1261 36.0147C33.5491 36.0147 35.5133 34.0504 35.5133 31.6274C35.5133 29.2045 33.5491 27.2402 31.1261 27.2402C28.7031 27.2402 26.7389 29.2045 26.7389 31.6274C26.7389 34.0504 28.7031 36.0147 31.1261 36.0147Z" fill="white"/>
<path d="M31.1261 44.7891C33.5491 44.7891 35.5133 42.8249 35.5133 40.4019C35.5133 37.9789 33.5491 36.0146 31.1261 36.0146C28.7031 36.0146 26.7389 37.9789 26.7389 40.4019C26.7389 42.8249 28.7031 44.7891 31.1261 44.7891Z" fill="white"/>
<path d="M39.9004 27.2402C42.3234 27.2402 44.2876 25.276 44.2876 22.853C44.2876 20.43 42.3234 18.4658 39.9004 18.4658C37.4774 18.4658 35.5132 20.43 35.5132 22.853C35.5132 25.276 37.4774 27.2402 39.9004 27.2402Z" fill="white"/>
<path d="M39.9004 36.0147C42.3234 36.0147 44.2876 34.0504 44.2876 31.6274C44.2876 29.2045 42.3234 27.2402 39.9004 27.2402C37.4774 27.2402 35.5132 29.2045 35.5132 31.6274C35.5132 34.0504 37.4774 36.0147 39.9004 36.0147Z" fill="white"/>
<path d="M39.9004 44.7891C42.3234 44.7891 44.2876 42.8249 44.2876 40.4019C44.2876 37.9789 42.3234 36.0146 39.9004 36.0146C37.4774 36.0146 35.5132 37.9789 35.5132 40.4019C35.5132 42.8249 37.4774 44.7891 39.9004 44.7891Z" fill="white"/>
<path fill-rule="evenodd" clip-rule="evenodd" d="M232.938 0.916992L215.389 0.916992C209.572 0.916992 203.992 3.2281 199.878 7.34191C195.765 11.4557 193.453 17.0352 193.453 22.8531V40.4019C193.453 46.2197 195.765 51.7992 199.878 55.913C203.992 60.0269 209.572 62.338 215.389 62.338H232.938C238.756 62.338 244.336 60.0269 248.449 55.913C252.563 51.7992 254.874 46.2197 254.874 40.4019V22.8531C254.874 17.0352 252.563 11.4557 248.449 7.34191C244.336 3.2281 238.756 0.916992 232.938 0.916992ZM246.1 22.8531V40.4019C246.1 43.8926 244.713 47.2403 242.245 49.7086C239.777 52.1769 236.429 53.5635 232.938 53.5635H215.389C211.899 53.5635 208.551 52.1769 206.083 49.7086C203.615 47.2403 202.228 43.8926 202.228 40.4019V22.8531C202.228 19.3624 203.615 16.0147 206.083 13.5464C208.551 11.0781 211.899 9.69142 215.389 9.69142H232.938C236.429 9.69142 239.777 11.0781 242.245 13.5464C244.713 16.0147 246.1 19.3624 246.1 22.8531Z" fill="white"/>
<path d="M215.389 27.2402C217.812 27.2402 219.776 25.276 219.776 22.853C219.776 20.43 217.812 18.4658 215.389 18.4658C212.966 18.4658 211.002 20.43 211.002 22.853C211.002 25.276 212.966 27.2402 215.389 27.2402Z" fill="white"/>
<path d="M215.389 36.0147C217.812 36.0147 219.776 34.0504 219.776 31.6274C219.776 29.2045 217.812 27.2402 215.389 27.2402C212.966 27.2402 211.002 29.2045 211.002 31.6274C211.002 34.0504 212.966 36.0147 215.389 36.0147Z" fill="white"/>
<path d="M215.389 44.7891C217.812 44.7891 219.776 42.8249 219.776 40.4019C219.776 37.9789 217.812 36.0146 215.389 36.0146C212.966 36.0146 211.002 37.9789 211.002 40.4019C211.002 42.8249 212.966 44.7891 215.389 44.7891Z" fill="white"/>
<path d="M224.163 27.2402C226.586 27.2402 228.55 25.276 228.55 22.853C228.55 20.43 226.586 18.4658 224.163 18.4658C221.74 18.4658 219.776 20.43 219.776 22.853C219.776 25.276 221.74 27.2402 224.163 27.2402Z" fill="white"/>
<path d="M224.163 36.0147C226.586 36.0147 228.55 34.0504 228.55 31.6274C228.55 29.2045 226.586 27.2402 224.163 27.2402C221.74 27.2402 219.776 29.2045 219.776 31.6274C219.776 34.0504 221.74 36.0147 224.163 36.0147Z" fill="white"/>
<path d="M224.163 44.7891C226.586 44.7891 228.55 42.8249 228.55 40.4019C228.55 37.9789 226.586 36.0146 224.163 36.0146C221.74 36.0146 219.776 37.9789 219.776 40.4019C219.776 42.8249 221.74 44.7891 224.163 44.7891Z" fill="white"/>
<path d="M232.939 27.2402C235.362 27.2402 237.327 25.276 237.327 22.853C237.327 20.43 235.362 18.4658 232.939 18.4658C230.516 18.4658 228.552 20.43 228.552 22.853C228.552 25.276 230.516 27.2402 232.939 27.2402Z" fill="white"/>
<path d="M232.939 36.0147C235.362 36.0147 237.327 34.0504 237.327 31.6274C237.327 29.2045 235.362 27.2402 232.939 27.2402C230.516 27.2402 228.552 29.2045 228.552 31.6274C228.552 34.0504 230.516 36.0147 232.939 36.0147Z" fill="white"/>
<path d="M232.939 44.7891C235.362 44.7891 237.327 42.8249 237.327 40.4019C237.327 37.9789 235.362 36.0146 232.939 36.0146C230.516 36.0146 228.552 37.9789 228.552 40.4019C228.552 42.8249 230.516 44.7891 232.939 44.7891Z" fill="white"/>
<path fill-rule="evenodd" clip-rule="evenodd" d="M22.3518 255.375H39.9007C45.7185 255.375 51.298 253.064 55.4118 248.95C59.5256 244.836 61.8367 239.257 61.8367 233.439V215.89C61.8367 210.072 59.5256 204.493 55.4118 200.379C51.298 196.265 45.7185 193.954 39.9007 193.954H22.3518C16.534 193.954 10.9545 196.265 6.84069 200.379C2.72688 204.493 0.415771 210.072 0.415771 215.89L0.415771 233.439C0.415771 239.257 2.72688 244.836 6.84069 248.95C10.9545 253.064 16.534 255.375 22.3518 255.375ZM9.1902 233.439V215.89C9.1902 212.399 10.5769 209.052 13.0452 206.583C15.5134 204.115 18.8612 202.728 22.3518 202.728H39.9007C43.3914 202.728 46.7391 204.115 49.2074 206.583C51.6756 209.052 53.0623 212.399 53.0623 215.89V233.439C53.0623 236.93 51.6756 240.277 49.2074 242.746C46.7391 245.214 43.3914 246.601 39.9007 246.601H22.3518C18.8612 246.601 15.5134 245.214 13.0452 242.746C10.5769 240.277 9.1902 236.93 9.1902 233.439Z" fill="white"/>
<path d="M22.3517 220.277C24.7747 220.277 26.7389 218.313 26.7389 215.89C26.7389 213.467 24.7747 211.503 22.3517 211.503C19.9287 211.503 17.9645 213.467 17.9645 215.89C17.9645 218.313 19.9287 220.277 22.3517 220.277Z" fill="white"/>
<path d="M22.3517 229.052C24.7747 229.052 26.7389 227.088 26.7389 224.665C26.7389 222.242 24.7747 220.277 22.3517 220.277C19.9287 220.277 17.9645 222.242 17.9645 224.665C17.9645 227.088 19.9287 229.052 22.3517 229.052Z" fill="white"/>
<path d="M22.3517 237.826C24.7747 237.826 26.7389 235.862 26.7389 233.439C26.7389 231.016 24.7747 229.052 22.3517 229.052C19.9287 229.052 17.9645 231.016 17.9645 233.439C17.9645 235.862 19.9287 237.826 22.3517 237.826Z" fill="white"/>
<path d="M31.1261 220.277C33.5491 220.277 35.5133 218.313 35.5133 215.89C35.5133 213.467 33.5491 211.503 31.1261 211.503C28.7031 211.503 26.7389 213.467 26.7389 215.89C26.7389 218.313 28.7031 220.277 31.1261 220.277Z" fill="white"/>
<path d="M31.1261 229.052C33.5491 229.052 35.5133 227.088 35.5133 224.665C35.5133 222.242 33.5491 220.277 31.1261 220.277C28.7031 220.277 26.7389 222.242 26.7389 224.665C26.7389 227.088 28.7031 229.052 31.1261 229.052Z" fill="white"/>
<path d="M31.1261 237.826C33.5491 237.826 35.5133 235.862 35.5133 233.439C35.5133 231.016 33.5491 229.052 31.1261 229.052C28.7031 229.052 26.7389 231.016 26.7389 233.439C26.7389 235.862 28.7031 237.826 31.1261 237.826Z" fill="white"/>
<path d="M39.9004 220.277C42.3234 220.277 44.2876 218.313 44.2876 215.89C44.2876 213.467 42.3234 211.503 39.9004 211.503C37.4774 211.503 35.5132 213.467 35.5132 215.89C35.5132 218.313 37.4774 220.277 39.9004 220.277Z" fill="white"/>
<path d="M39.9004 229.052C42.3234 229.052 44.2876 227.088 44.2876 224.665C44.2876 222.242 42.3234 220.277 39.9004 220.277C37.4774 220.277 35.5132 222.242 35.5132 224.665C35.5132 227.088 37.4774 229.052 39.9004 229.052Z" fill="white"/>
<path d="M39.9004 237.826C42.3234 237.826 44.2876 235.862 44.2876 233.439C44.2876 231.016 42.3234 229.052 39.9004 229.052C37.4774 229.052 35.5132 231.016 35.5132 233.439C35.5132 235.862 37.4774 237.826 39.9004 237.826Z" fill="white"/>
</mask>
<g mask="url(#mask0_1304_6576)">
<path d="M259.262 -3.46973H-3.97107V259.763H259.262V-3.46973Z" fill="white"/>
</g>
</svg>
