<?xml version="1.0" standalone="no"?>
<!DOCTYPE svg PUBLIC "-//W3C//DTD SVG 20010904//EN"
 "http://www.w3.org/TR/2001/REC-SVG-20010904/DTD/svg10.dtd">
<svg version="1.0" xmlns="http://www.w3.org/2000/svg"
 width="24.000000pt" height="24.000000pt" viewBox="0 0 24.000000 24.000000"
 preserveAspectRatio="xMidYMid meet">

<g transform="translate(0.000000,24.000000) scale(0.100000,-0.100000)"
fill="#000000" stroke="none">
<path d="M77 163 c-4 -3 0 -15 10 -25 15 -17 15 -19 0 -36 -22 -24 -9 -37 15
-15 17 15 19 15 36 0 24 -22 37 -9 15 15 -15 17 -15 19 0 36 22 24 9 37 -15
15 -17 -15 -19 -15 -36 0 -10 10 -22 14 -25 10z"/>
</g>
</svg>
