<svg width="33" height="33" viewBox="0 0 33 33" fill="none" xmlns="http://www.w3.org/2000/svg">
<path d="M32.3402 16.3664C32.3402 7.61668 25.2472 0.523668 16.4975 0.523668C7.7478 0.523668 0.654785 7.61668 0.654785 16.3664C0.654785 24.2739 6.44823 30.8281 14.0221 32.0166V20.9459H9.9995V16.3664H14.0221V12.876C14.0221 8.90545 16.3873 6.71222 20.0061 6.71222C21.7394 6.71222 23.5524 7.02165 23.5524 7.02165V10.9204H21.5547C19.5867 10.9204 18.9729 12.1417 18.9729 13.3945V16.3664H23.3668L22.6644 20.9459H18.9729V32.0166C26.5467 30.8281 32.3402 24.2739 32.3402 16.3664Z" fill="#1877F2"/>
<path d="M22.6639 20.9468L23.3663 16.3673H18.9724V13.3954C18.9724 12.1426 19.5862 10.9213 21.5542 10.9213H23.552V7.02255C23.552 7.02255 21.7389 6.71312 20.0056 6.71312C16.3868 6.71312 14.0216 8.90635 14.0216 12.8769V16.3673H9.99902V20.9468H14.0216V32.0175C14.8282 32.1441 15.6549 32.21 16.497 32.21C17.3391 32.21 18.1658 32.1441 18.9724 32.0175V20.9468H22.6639Z" fill="white"/>
</svg>
