<svg width="512pt" height="512pt" viewBox="0 0 30 30" fill="none" xmlns="http://www.w3.org/2000/svg">
<path d="M29.3092 15.6951C29.3092 14.6653 29.2168 13.6752 29.0452 12.7246H15.3677V18.3422H23.1834C22.8467 20.1575 21.8236 21.6955 20.2855 22.7253V26.3691H24.9789C27.725 23.8409 29.3092 20.1179 29.3092 15.6951Z" fill="#4285F4"/>
<path d="M15.3662 29.8872C19.2873 29.8872 22.5747 28.5868 24.9775 26.3688L20.2841 22.725C18.9837 23.5964 17.3202 24.1112 15.3662 24.1112C11.5838 24.1112 8.38225 21.5566 7.24025 18.124H2.38843V21.8867C4.77803 26.6329 9.68927 29.8872 15.3662 29.8872Z" fill="#34A853"/>
<path d="M7.24122 18.124C6.95077 17.2526 6.78574 16.3218 6.78574 15.3647C6.78574 14.4075 6.95077 13.4768 7.24122 12.6054V8.84277H2.38939C1.37282 10.8665 0.843831 13.1 0.844728 15.3647C0.844728 17.7081 1.40582 19.9261 2.38939 21.8866L7.24122 18.124Z" fill="#FBBC05"/>
<path d="M15.3662 6.61876C17.4984 6.61876 19.4127 7.35148 20.9178 8.79053L25.0831 4.62522C22.5681 2.28182 19.2807 0.842773 15.3662 0.842773C9.68927 0.842773 4.77803 4.09713 2.38843 8.84334L7.24025 12.606C8.38225 9.17339 11.5838 6.61876 15.3662 6.61876Z" fill="#EA4335"/>
</svg>
