<svg width="30" height="29" viewBox="0 0 30 29" fill="none" xmlns="http://www.w3.org/2000/svg">
<path d="M25.4308 24.212H21.179V17.7999C21.179 16.2709 21.1506 14.3026 18.9676 14.3026C16.7531 14.3026 16.4143 15.9685 16.4143 17.6886V24.2116H12.1625V11.0257H16.2442V12.8277H16.3014C16.7098 12.1551 17.3001 11.6018 18.0093 11.2268C18.7185 10.8517 19.5201 10.6688 20.3286 10.6978C24.638 10.6978 25.4325 13.4274 25.4325 16.9785L25.4308 24.212ZM7.36505 9.22332C6.87705 9.2234 6.39997 9.08413 5.99416 8.82312C5.58836 8.5621 5.27206 8.19106 5.08523 7.75692C4.8984 7.32279 4.84944 6.84505 4.94456 6.38412C5.03967 5.92319 5.2746 5.49978 5.6196 5.16742C5.96461 4.83506 6.40421 4.60868 6.88282 4.51692C7.36143 4.42516 7.85753 4.47212 8.30842 4.65189C8.75931 4.83165 9.14471 5.13613 9.4159 5.52682C9.68709 5.91752 9.83189 6.37688 9.83198 6.84682C9.83204 7.15885 9.76827 7.46784 9.64432 7.75614C9.52038 8.04444 9.3387 8.3064 9.10963 8.52708C8.88055 8.74776 8.60856 8.92282 8.30923 9.04229C8.0099 9.16175 7.68907 9.22326 7.36505 9.22332ZM9.49094 24.212H5.23472V11.0257H9.49094V24.212ZM27.5505 0.668875H3.0982C2.5432 0.662843 2.0084 0.869246 1.61135 1.24273C1.2143 1.61621 0.987486 2.12621 0.980713 2.66066V26.3058C0.987255 26.8405 1.21393 27.3508 1.61097 27.7247C2.00801 28.0986 2.54293 28.3054 3.0982 28.2997H27.5505C28.1068 28.3064 28.6433 28.1002 29.0419 27.7263C29.4405 27.3525 29.6687 26.8415 29.6764 26.3058V2.65895C29.6684 2.12344 29.4401 1.61286 29.0415 1.23939C28.6428 0.865918 28.1066 0.660105 27.5505 0.667168" fill="#0A66C2"/>
</svg>
