<svg width="72" height="89" viewBox="0 0 72 89" fill="none" xmlns="http://www.w3.org/2000/svg">
<g clip-path="url(#clip0_2322_8161)">
<path d="M12.1665 13.589C11.8106 13.8097 11.3808 13.8795 10.9696 13.7833C10.5585 13.6872 10.1988 13.4328 9.96811 13.0749C9.73739 12.7171 9.65402 12.2843 9.73596 11.8699C9.8179 11.4554 10.0586 11.0923 10.4062 10.8588L25.2691 0.871902C25.4432 0.754023 25.6393 0.672286 25.846 0.631368C26.0527 0.59045 26.2659 0.591166 26.4736 0.633465C26.6813 0.675764 26.8792 0.75881 27.0561 0.877858C27.2329 0.996907 27.3852 1.14961 27.5043 1.32721C27.6233 1.50481 27.7067 1.70382 27.7497 1.91282C27.7927 2.12181 27.7945 2.33668 27.7549 2.54512C27.7153 2.75357 27.6351 2.95146 27.519 3.12748C27.4028 3.3035 27.253 3.45418 27.078 3.57086L12.2153 13.5577L12.1665 13.589Z" fill="#2242D8"/>
<path d="M47.5278 39.0623C47.3866 39.1499 47.2323 39.2145 47.0706 39.2537L28.7819 43.7191C28.5778 43.769 28.3653 43.7776 28.1566 43.7447C27.9479 43.7117 27.7471 43.6377 27.5657 43.527C27.3842 43.4163 27.2256 43.271 27.099 43.0993C26.9724 42.9277 26.8801 42.7331 26.8276 42.5267C26.7751 42.3203 26.7634 42.1061 26.793 41.8963C26.8226 41.6865 26.893 41.4853 27.0003 41.3041C27.1075 41.1229 27.2494 40.9653 27.4179 40.8403C27.5864 40.7153 27.7782 40.6253 27.9823 40.5755L46.271 36.11C46.6415 36.0196 47.0339 36.066 47.3775 36.2408C47.721 36.4156 47.9931 36.7073 48.1447 37.0635C48.2963 37.4196 48.3174 37.8167 48.2043 38.1831C48.0912 38.5496 47.8513 38.8614 47.5278 39.0623Z" fill="#2242D8"/>
<path d="M61.4874 78.6753C61.145 78.8883 60.7331 78.9613 60.335 78.8796L36.222 73.9587C35.8036 73.8734 35.4335 73.6245 35.1931 73.2669C34.9528 72.9093 34.8619 72.4723 34.9405 72.0519C35.019 71.6316 35.2606 71.2624 35.612 71.0256C35.9634 70.7888 36.3959 70.7037 36.8144 70.7891L60.9272 75.71C61.2443 75.7747 61.536 75.9338 61.7645 76.1667C61.9929 76.3995 62.1475 76.6952 62.2079 77.0153C62.2684 77.3354 62.232 77.665 62.1035 77.9611C61.9749 78.2572 61.7602 78.5061 61.4874 78.6753Z" fill="#2242D8"/>
</g>
<defs>
<clipPath id="clip0_2322_8161">
<rect width="31.3919" height="85.2066" fill="white" transform="translate(0 16.5508) rotate(-31.8193)"/>
</clipPath>
</defs>
</svg>
