<svg width="58" height="70" viewBox="0 0 58 70" fill="none" xmlns="http://www.w3.org/2000/svg">
<g clip-path="url(#clip0_2322_8166)">
<path d="M53.3838 19.3495C53.3445 19.3284 53.3059 19.3053 53.2679 19.2802L28.8863 3.05235C28.5777 2.846 28.3633 2.52637 28.2902 2.16357C28.217 1.80078 28.2909 1.42446 28.4959 1.11714C28.7008 0.80983 29.0199 0.596626 29.3832 0.524311C29.7466 0.451996 30.1244 0.526466 30.4339 0.731393L54.8156 16.9591C55.1154 17.1585 55.3271 17.4651 55.407 17.8152C55.4869 18.1652 55.4287 18.532 55.2446 18.8393C55.0605 19.1467 54.7645 19.3711 54.4181 19.4661C54.0716 19.5611 53.7013 19.5193 53.3838 19.3495Z" fill="white"/>
<path d="M27.7723 36.2104C27.4699 36.0478 27.2373 35.7804 27.1188 35.4589C27.0002 35.1375 27.004 34.7843 27.1292 34.4664C27.2545 34.1485 27.4926 33.888 27.7984 33.7343C28.1041 33.5806 28.4563 33.5443 28.7881 33.6325L40.4823 36.7405C40.8415 36.836 41.1485 37.0697 41.3359 37.3902C41.5232 37.7107 41.5755 38.0918 41.4813 38.4497C41.387 38.8075 41.154 39.1127 40.8333 39.2982C40.5127 39.4837 40.1308 39.5343 39.7716 39.4388L28.0773 36.3308C27.9713 36.3026 27.869 36.2622 27.7723 36.2104Z" fill="white"/>
<path d="M10.6011 59.9022C10.3312 59.7577 10.1158 59.5293 9.98771 59.2518C9.85967 58.9743 9.82607 58.663 9.89202 58.3655C9.95798 58.0679 10.1199 57.8005 10.353 57.6041C10.5861 57.4076 10.8776 57.293 11.1829 57.2776L32.7622 56.1917C33.1325 56.1739 33.4954 56.3033 33.7713 56.5516C34.0472 56.7999 34.2135 57.1468 34.2337 57.5162C34.2539 57.8856 34.1264 58.2473 33.8792 58.5219C33.6319 58.7965 33.2852 58.9617 32.9149 58.9811L11.3357 60.0668C11.0806 60.0799 10.8265 60.023 10.6011 59.9022Z" fill="white"/>
</g>
<defs>
<clipPath id="clip0_2322_8166">
<rect width="31.9603" height="61.5236" fill="white" transform="translate(29.0842) rotate(28.2119)"/>
</clipPath>
</defs>
</svg>
