<svg width="54" height="78" viewBox="0 0 54 78" fill="none" xmlns="http://www.w3.org/2000/svg">
<g clip-path="url(#clip0_2322_8170)">
<path d="M36.7764 7.28165C36.4462 7.14548 36.1836 6.88295 36.0451 6.55057C35.9065 6.21819 35.9032 5.84254 36.0357 5.50445C36.1682 5.16637 36.426 4.89289 36.7536 4.74288C37.0811 4.59287 37.4523 4.57831 37.7873 4.70235L52.1081 10.0038C52.2765 10.0655 52.4308 10.1604 52.5622 10.2829C52.6936 10.4055 52.7995 10.5534 52.8738 10.7182C52.9481 10.8829 52.9893 11.0613 52.9952 11.243C53.001 11.4247 52.9713 11.6062 52.9078 11.7771C52.8443 11.948 52.7483 12.105 52.6251 12.239C52.502 12.3729 52.3542 12.4813 52.1903 12.5579C52.0263 12.6344 51.8495 12.6777 51.6698 12.6851C51.4901 12.6925 51.3111 12.664 51.1431 12.6012L36.8224 7.29979L36.7764 7.28165Z" fill="white"/>
<path d="M36.7895 44.4474C36.6585 44.3934 36.5369 44.3189 36.4291 44.2266L24.2194 33.8017C24.0832 33.6853 23.9712 33.5426 23.89 33.3818C23.8087 33.221 23.7597 33.0452 23.7458 32.8645C23.7319 32.6837 23.7533 32.5015 23.8089 32.3283C23.8645 32.1551 23.9531 31.9943 24.0697 31.8551C24.1864 31.7158 24.3287 31.6008 24.4886 31.5167C24.6484 31.4326 24.8228 31.381 25.0016 31.3648C25.1804 31.3486 25.3602 31.3682 25.5307 31.4224C25.7012 31.4766 25.8592 31.5644 25.9954 31.6808L38.2051 42.1057C38.4524 42.3169 38.616 42.6115 38.6664 42.9363C38.7168 43.2612 38.6507 43.5949 38.4799 43.8774C38.3092 44.1599 38.045 44.3725 37.7351 44.477C37.4252 44.5815 37.0898 44.571 36.7895 44.4474Z" fill="white"/>
<path d="M16.3474 73.8594C16.0293 73.7288 15.7735 73.4803 15.6314 73.1641L7.01048 54.0291C6.86088 53.697 6.84846 53.3169 6.97598 52.9723C7.1035 52.6277 7.36051 52.3469 7.69045 52.1916C8.0204 52.0363 8.39626 52.0193 8.73535 52.1443C9.07444 52.2693 9.34897 52.5261 9.49858 52.8582L18.1194 71.9931C18.2328 72.2447 18.2682 72.5259 18.221 72.8001C18.1739 73.0742 18.0464 73.3286 17.8551 73.5301C17.6638 73.7315 17.4177 73.8707 17.1488 73.9294C16.8798 73.9882 16.6006 73.9638 16.3474 73.8594Z" fill="white"/>
</g>
<defs>
<clipPath id="clip0_2322_8170">
<rect width="26.771" height="72.6641" fill="white" transform="translate(28.6604 0.341797) rotate(22.3933)"/>
</clipPath>
</defs>
</svg>
