<svg width="29" height="24" viewBox="0 0 29 24" fill="none" xmlns="http://www.w3.org/2000/svg">
<path d="M25.7962 5.87457C25.8137 6.12804 25.8137 6.3815 25.8137 6.6373C25.8137 14.4316 19.8915 23.4209 9.06263 23.4209V23.4162C5.86373 23.4209 2.73128 22.5028 0.0383301 20.7718C0.503476 20.8278 0.970953 20.8559 1.4396 20.857C4.09058 20.8594 6.66578 19.9681 8.75136 18.327C6.23211 18.2792 4.02296 16.6334 3.25122 14.2307C4.13371 14.4013 5.04302 14.3662 5.90919 14.1291C3.16262 13.5731 1.18662 11.1553 1.18662 8.34731C1.18662 8.32161 1.18662 8.29709 1.18662 8.27256C2.005 8.72926 2.9213 8.98273 3.85859 9.01076C1.27172 7.27855 0.474331 3.8305 2.03648 1.13467C5.02553 4.81983 9.43568 7.06013 14.1699 7.29724C13.6954 5.2485 14.3436 3.10164 15.8731 1.66145C18.2443 -0.571841 21.9736 -0.457373 24.2026 1.91725C25.5211 1.65678 26.7848 1.17204 27.9413 0.485235C27.5018 1.85067 26.582 3.01054 25.3532 3.74757C26.5202 3.60974 27.6603 3.29671 28.734 2.81898C27.9436 4.00571 26.948 5.03942 25.7962 5.87457Z" fill="#1D9BF0"/>
</svg>
