<svg width="512.000pt" height="512.0000pt" viewBox="0 0 29 35" fill="none" xmlns="http://www.w3.org/2000/svg">
<path d="M28.0916 11.9412C25.7157 13.3824 24.2482 15.8529 24.2482 18.598C24.2482 21.6863 26.1349 24.5 29 25.6667C28.441 27.451 27.6024 29.098 26.5542 30.6078C25.0169 32.7353 23.4096 34.9314 21.0337 34.9314C18.6578 34.9314 17.959 33.5588 15.1639 33.5588C12.4386 33.5588 11.4602 35 9.2241 35C6.98795 35 5.4506 33.0098 3.70361 30.5392C1.39759 27.1078 0.0698795 23.1275 0 18.9412C0 12.1471 4.47229 8.5098 8.94458 8.5098C11.3205 8.5098 13.2771 10.0196 14.7446 10.0196C16.1422 10.0196 18.3783 8.44118 21.0337 8.44118C23.8289 8.37255 26.4843 9.67647 28.0916 11.9412ZM19.7759 5.55882C20.9639 4.18628 21.5928 2.47059 21.6627 0.686275C21.6627 0.480392 21.6627 0.205882 21.5928 0C19.5663 0.205882 17.6795 1.16667 16.3518 2.67647C15.1639 3.98039 14.4651 5.62745 14.3952 7.41177C14.3952 7.61765 14.3952 7.82353 14.4651 8.02941C14.6048 8.02941 14.8145 8.09804 14.9542 8.09804C16.841 7.96078 18.588 7 19.7759 5.55882Z" fill="black"/>
</svg>
