<svg width="15" height="15" viewBox="0 0 22 27" fill="none" xmlns="http://www.w3.org/2000/svg">
<path d="M18.0179 14.2837C18.0436 12.2937 19.1123 10.4106 20.8078 9.36827C19.7382 7.84071 17.9467 6.8722 16.0828 6.81388C14.0948 6.60522 12.1675 8.00346 11.1545 8.00346C10.1219 8.00346 8.56212 6.8346 6.88255 6.86916C4.6933 6.93989 2.65236 8.18458 1.58725 10.0986C-0.702335 14.0626 1.00549 19.8884 3.19871 23.0927C4.29603 24.6617 5.57848 26.4144 7.25654 26.3522C8.89862 26.2841 9.51191 25.3051 11.494 25.3051C13.4578 25.3051 14.0332 26.3522 15.7453 26.3127C17.5073 26.2841 18.6175 24.7367 19.6763 23.1528C20.4647 22.0348 21.0714 20.7992 21.4739 19.4917C19.4032 18.6159 18.0203 16.532 18.0179 14.2837Z" fill="white"/>
<path d="M14.784 4.70662C15.7447 3.55329 16.2181 2.07089 16.1034 0.574219C14.6357 0.728381 13.2798 1.42989 12.3061 2.53896C11.354 3.62258 10.8585 5.0789 10.9521 6.51837C12.4205 6.53349 13.8639 5.851 14.784 4.70662Z" fill="white"/>
</svg>
