<svg width="72" height="89" viewBox="0 0 72 89" fill="none" xmlns="http://www.w3.org/2000/svg">
<g clip-path="url(#clip0_2322_8031)">
<path d="M12.1663 13.59C11.8103 13.8107 11.3806 13.8805 10.9694 13.7843C10.5582 13.6882 10.1986 13.4338 9.96787 13.0759C9.73714 12.718 9.65377 12.2853 9.73572 11.8708C9.81766 11.4564 10.0583 11.0933 10.406 10.8598L25.2688 0.872878C25.443 0.754999 25.639 0.673263 25.8457 0.632344C26.0524 0.591427 26.2657 0.592142 26.4734 0.634441C26.681 0.67674 26.8789 0.759786 27.0558 0.878835C27.2327 0.997883 27.385 1.15059 27.504 1.32819C27.623 1.50579 27.7065 1.7048 27.7495 1.91379C27.7925 2.12279 27.7942 2.33766 27.7546 2.5461C27.715 2.75454 27.6349 2.95243 27.5187 3.12845C27.4026 3.30447 27.2527 3.45515 27.0778 3.57184L12.2151 13.5586L12.1663 13.59Z" fill="#2242D8"/>
<path d="M47.5275 39.0623C47.3863 39.1499 47.2321 39.2145 47.0703 39.2537L28.7817 43.7191C28.5776 43.769 28.3651 43.7776 28.1564 43.7447C27.9477 43.7117 27.7469 43.6377 27.5654 43.527C27.3839 43.4163 27.2254 43.271 27.0987 43.0993C26.9721 42.9277 26.8799 42.7331 26.8274 42.5267C26.7749 42.3203 26.7631 42.1061 26.7927 41.8963C26.8223 41.6865 26.8928 41.4853 27 41.3041C27.1072 41.1229 27.2491 40.9653 27.4176 40.8403C27.5862 40.7153 27.778 40.6253 27.9821 40.5755L46.2707 36.11C46.6413 36.0196 47.0337 36.066 47.3772 36.2408C47.7208 36.4156 47.9929 36.7073 48.1445 37.0635C48.2961 37.4196 48.3172 37.8167 48.2041 38.1831C48.091 38.5496 47.851 38.8614 47.5275 39.0623Z" fill="#2242D8"/>
<path d="M61.4871 78.6753C61.1447 78.8883 60.7329 78.9613 60.3348 78.8796L36.2218 73.9587C35.8034 73.8734 35.4332 73.6245 35.1929 73.2669C34.9526 72.9093 34.8617 72.4723 34.9402 72.0519C35.0188 71.6316 35.2603 71.2624 35.6118 71.0256C35.9632 70.7888 36.3957 70.7037 36.8141 70.7891L60.927 75.71C61.244 75.7747 61.5358 75.9338 61.7642 76.1667C61.9927 76.3995 62.1472 76.6952 62.2077 77.0153C62.2682 77.3354 62.2317 77.665 62.1032 77.9611C61.9747 78.2572 61.76 78.5061 61.4871 78.6753Z" fill="#2242D8"/>
</g>
<defs>
<clipPath id="clip0_2322_8031">
<rect width="31.3919" height="85.2066" fill="white" transform="translate(0 16.5513) rotate(-31.8193)"/>
</clipPath>
</defs>
</svg>
