<?xml version="1.0" standalone="no"?>
<!DOCTYPE svg PUBLIC "-//W3C//DTD SVG 20010904//EN"
 "http://www.w3.org/TR/2001/REC-SVG-20010904/DTD/svg10.dtd">
<svg version="1.0" xmlns="http://www.w3.org/2000/svg"
 width="48.000000pt" height="48.000000pt" viewBox="0 0 48.000000 48.000000"
 preserveAspectRatio="xMidYMid meet">

<g transform="translate(0.000000,48.000000) scale(0.100000,-0.100000)"
fill="#000000" stroke="none">
<path d="M100 374 c-11 -13 -5 -24 46 -75 l58 -59 -59 -60 c-56 -57 -58 -61
-42 -77 16 -16 20 -14 77 42 l60 59 60 -59 c57 -56 61 -58 77 -42 16 16 14 20
-42 77 l-59 60 59 60 c56 57 58 61 42 77 -16 16 -20 14 -77 -42 l-60 -59 -58
57 c-32 31 -60 57 -64 57 -3 0 -11 -7 -18 -16z"/>
</g>
</svg>
