<svg width="42" height="42" viewBox="0 0 42 42" fill="none" xmlns="http://www.w3.org/2000/svg">
<path d="M29.5145 23.3942V28.5837C29.5145 35.5031 26.7467 38.2708 19.8274 38.2708H13.254C6.33464 38.2708 3.56689 35.5031 3.56689 28.5837V22.0103C3.56689 15.091 6.33464 12.3232 13.254 12.3232H18.4435" stroke="#2242D8" stroke-width="2.30645" stroke-linecap="round" stroke-linejoin="round"/>
<path d="M29.5143 23.3942H23.9788C19.8272 23.3942 18.4434 22.0103 18.4434 17.8587V12.3232L29.5143 23.3942Z" stroke="#2242D8" stroke-width="2.30645" stroke-linecap="round" stroke-linejoin="round"/>
<path d="M20.1733 3.6748H27.0927" stroke="#2242D8" stroke-width="2.30645" stroke-linecap="round" stroke-linejoin="round"/>
<path d="M12.2163 8.86432C12.2163 5.99279 14.5343 3.6748 17.4058 3.6748H21.938" stroke="#2242D8" stroke-width="2.30645" stroke-linecap="round" stroke-linejoin="round"/>
<path d="M38.1641 14.0537V24.7614C38.1641 27.4427 35.9845 29.6223 33.3032 29.6223" stroke="#2242D8" stroke-width="2.30645" stroke-linecap="round" stroke-linejoin="round"/>
<path d="M38.1637 14.0538H32.9742C29.082 14.0538 27.7847 12.7565 27.7847 8.86432V3.6748L38.1637 14.0538Z" stroke="#2242D8" stroke-width="2.30645" stroke-linecap="round" stroke-linejoin="round"/>
</svg>
