<svg width="5" height="5" viewBox="0 0 34 24" fill="none" xmlns="http://www.w3.org/2000/svg">
<g clip-path="url(#clip0_1877_6796)">
<path d="M2.31818 23.9998H7.72727V11.6362L0 6.18164V21.818C0 23.0253 1.03932 23.9998 2.31818 23.9998Z" fill="#4285F4"/>
<path d="M26.2734 23.9998H31.6825C32.9653 23.9998 34.0007 23.0216 34.0007 21.818V6.18164L26.2734 11.6362" fill="#34A853"/>
<path d="M26.2734 2.18215V11.6367L34.0007 6.18215V3.27306C34.0007 0.574876 30.7282 -0.963306 28.4371 0.654875" fill="#FBBC04"/>
<path d="M7.72656 11.6362V2.18164L16.9993 8.7271L26.272 2.18164V11.6362L16.9993 18.1816" fill="#EA4335"/>
<path d="M0 3.27306V6.18215L7.72727 11.6367V2.18215L5.56364 0.654875C3.26864 -0.963306 0 0.574876 0 3.27306Z" fill="#C5221F"/>
</g>
<defs>
<clipPath id="clip0_1877_6796">
<rect width="34" height="24" fill="white"/>
</clipPath>
</defs>
</svg>
