<svg width="512.000000pt" height="512.000000pt" viewBox="0 0 30 30" fill="none" xmlns="http://www.w3.org/2000/svg">
<path d="M29.3092 15.6951C29.3092 14.6653 29.2168 13.6752 29.0452 12.7246H15.3677V18.3422H23.1834C22.8467 20.1575 21.8236 21.6955 20.2855 22.7253V26.3691H24.9789C27.725 23.8409 29.3092 20.1179 29.3092 15.6951Z" fill="#4285F4"/>
<path d="M15.366 29.8872C19.2871 29.8872 22.5744 28.5868 24.9772 26.3688L20.2838 22.725C18.9834 23.5964 17.3199 24.1112 15.366 24.1112C11.5835 24.1112 8.382 21.5566 7.24001 18.124H2.38818V21.8867C4.77779 26.6329 9.68903 29.8872 15.366 29.8872Z" fill="#34A853"/>
<path d="M7.24122 18.124C6.95077 17.2526 6.78574 16.3218 6.78574 15.3647C6.78574 14.4075 6.95077 13.4768 7.24122 12.6054V8.84277H2.38939C1.37282 10.8665 0.843831 13.1 0.844728 15.3647C0.844728 17.7081 1.40582 19.9261 2.38939 21.8866L7.24122 18.124Z" fill="#FBBC05"/>
<path d="M15.366 6.61876C17.4982 6.61876 19.4125 7.35148 20.9175 8.79053L25.0828 4.62522C22.5678 2.28182 19.2805 0.842773 15.366 0.842773C9.68903 0.842773 4.77779 4.09713 2.38818 8.84334L7.24001 12.606C8.382 9.17339 11.5835 6.61876 15.366 6.61876Z" fill="#EA4335"/>
</svg>
