<svg width="512.000000pt" height="512.000000pt" viewBox="0 0 24 24" fill="none" xmlns="http://www.w3.org/2000/svg">
<path d="M23.49 12.27C23.49 11.48 23.42 10.73 23.3 10H12V14.51H18.47C18.18 15.99 17.33 17.24 16.07 18.09V21.09H19.93C22.19 19 23.49 15.92 23.49 12.27Z" fill="white"/>
<path d="M11.9991 23.9991C15.2391 23.9991 17.9491 22.9191 19.9291 21.0891L16.0691 18.0891C14.9891 18.8091 13.6191 19.2491 11.9991 19.2491C8.86906 19.2491 6.21906 17.1391 5.26906 14.2891H1.28906V17.3791C3.25906 21.2991 7.30906 23.9991 11.9991 23.9991Z" fill="white"/>
<path d="M5.27 14.2872C5.02 13.5672 4.89 12.7972 4.89 11.9972C4.89 11.1972 5.03 10.4272 5.27 9.70719V6.61719H1.29C0.469999 8.23719 0 10.0572 0 11.9972C0 13.9372 0.469999 15.7572 1.29 17.3772L5.27 14.2872Z" fill="white"/>
<path d="M11.9991 4.75C13.7691 4.75 15.3491 5.36 16.5991 6.55L20.0191 3.13C17.9491 1.19 15.2391 0 11.9991 0C7.30906 0 3.25906 2.7 1.28906 6.62L5.26906 9.71C6.21906 6.86 8.86906 4.75 11.9991 4.75Z" fill="white"/>
</svg>
