<svg width="512.000000pt" height="512.000000pt" viewBox="0 0 24 24" fill="none" xmlns="http://www.w3.org/2000/svg">
<path d="M13.0727 0.28125H14.5907L15.5824 0.30149L16.392 0.321729L16.817 0.341969C18.0719 0.402688 18.922 0.605084 19.6506 0.888439C20.4197 1.19203 21.0674 1.59683 21.7353 2.24449C22.3829 2.89216 22.7877 3.56007 23.0913 4.32918C23.3544 4.99709 23.5366 5.74595 23.6176 6.77817L23.6783 7.89135L23.6985 8.94382L23.7188 10.9475V14.7121L23.6985 15.886L23.658 16.8575C23.5973 18.1124 23.3949 18.9624 23.1116 19.7113C22.808 20.4804 22.4032 21.1281 21.7555 21.796C21.1078 22.4437 20.4602 22.8484 19.6708 23.152C19.0029 23.4152 18.254 23.5973 17.2218 23.6783L15.967 23.739L14.8538 23.7592L13.0525 23.7795H9.28789L8.11399 23.7592L7.14249 23.7188C5.88763 23.658 5.03756 23.4556 4.30894 23.1723C3.53983 22.8687 2.89216 22.4639 2.22426 21.8162C1.57659 21.1686 1.17179 20.5006 0.868199 19.7315C0.605084 19.0636 0.422927 18.3148 0.341969 17.2825L0.30149 16.4527L0.28125 15.6431L0.28125 14.5907V12.7286V9.38909L0.30149 8.39734L0.321729 7.58776L0.341969 7.16273C0.402688 5.92811 0.605084 5.07804 0.888439 4.32918C1.19203 3.56007 1.59683 2.9124 2.24449 2.24449C2.89216 1.59683 3.56007 1.19203 4.32918 0.888439C4.99709 0.625324 5.74595 0.443167 6.77817 0.362209L7.608 0.321729L8.41758 0.30149L9.38909 0.28125H10.9071C10.9273 0.28125 13.0727 0.28125 13.0727 0.28125ZM14.5502 2.40641H9.42957L8.53902 2.42665L7.24369 2.46713C6.91985 2.48737 6.59602 2.50761 6.27218 2.54809L6.09003 2.56833C5.96859 2.58857 5.82691 2.60881 5.70547 2.64929L5.5638 2.68977C5.52332 2.71001 5.48284 2.71001 5.44236 2.73025L5.17924 2.8112L5.0578 2.85168C4.51133 3.07432 4.12678 3.3172 3.70175 3.72199C3.29696 4.12678 3.03384 4.53157 2.83144 5.07804L2.77073 5.34116L2.73025 5.4626C2.62905 5.80667 2.52785 6.29242 2.46713 6.96033L2.44689 7.46632L2.40641 8.51878L2.38617 10.3201V14.4895L2.40641 15.7848L2.44689 16.7361C2.46713 17.0802 2.48737 17.4242 2.54809 17.7683L2.56833 17.9302C2.56833 17.9505 2.56833 17.9909 2.58857 18.0112L2.62905 18.1529L2.66953 18.2945C2.66953 18.3148 2.68977 18.335 2.68977 18.3552L2.73025 18.4767L2.77073 18.5981L2.79096 18.6588L2.87192 18.9017C3.07432 19.4482 3.33744 19.8327 3.74223 20.2578C4.14702 20.6626 4.55181 20.9257 5.09828 21.1281L5.34116 21.209L5.44236 21.2495L5.50308 21.2698L5.62451 21.3102C5.64475 21.3102 5.66499 21.3305 5.68523 21.3305L5.82691 21.371L5.96859 21.4114L6.1305 21.4317C6.4341 21.4924 6.79841 21.5329 7.24369 21.5531L8.6807 21.6138L10.5832 21.6341H14.7121L15.7646 21.6138L16.7158 21.5733C17.1611 21.5531 17.5254 21.5126 17.829 21.4519L17.9909 21.4317L18.1326 21.3912L18.2945 21.3305L18.3552 21.3102L18.4767 21.2698L18.5981 21.2293L18.6588 21.209L18.9017 21.1281C19.4482 20.9257 19.8327 20.6626 20.2578 20.2578C20.6626 19.853 20.9257 19.4482 21.1281 18.9017L21.209 18.6588C21.3305 18.2945 21.4519 17.7885 21.5126 17.0194L21.5733 15.7848L21.5936 14.53V12.7286V9.47005L21.5733 8.21519L21.5329 7.26393C21.5126 6.98057 21.4924 6.67698 21.4519 6.39362L21.4317 6.21146C21.4114 6.13051 21.4114 6.04955 21.3912 5.96859L21.3507 5.82691C21.3305 5.78643 21.3305 5.72571 21.3102 5.68523L21.2698 5.5638L21.2495 5.50308L21.1483 5.17924L21.1281 5.11852C20.9054 4.57205 20.6626 4.1875 20.2578 3.76247C19.853 3.33744 19.4482 3.09456 18.9017 2.89216L18.7803 2.85168L18.5172 2.77073L18.4564 2.71001L18.2945 2.66953C17.9707 2.58857 17.5659 2.50761 17.0194 2.46713L16.1491 2.42665L15.4407 2.40641H14.5502Z" fill="white"/>
<path d="M11.9995 5.98751C15.3188 5.98751 18.0106 8.67938 18.0106 11.9987C18.0106 15.318 15.3188 18.0098 11.9995 18.0098C8.68015 18.0098 5.98828 15.318 5.98828 11.9987C5.98828 8.67938 8.68015 5.98751 11.9995 5.98751ZM11.9995 8.09243C9.83381 8.09243 8.0932 9.83304 8.0932 11.9987C8.0932 14.1643 9.83381 15.9049 11.9995 15.9049C14.1651 15.9049 15.9057 14.1643 15.9057 11.9987C15.9057 9.83304 14.1449 8.09243 11.9995 8.09243ZM19.65 5.74463C19.6703 6.51374 19.0631 7.1614 18.294 7.18164C17.5249 7.20188 16.8772 6.59469 16.857 5.82559C16.857 5.80535 16.857 5.76487 16.857 5.74463C16.8772 4.97552 17.5249 4.34809 18.294 4.38857C19.0428 4.38857 19.6298 4.99576 19.65 5.74463Z" fill="white"/>
</svg>
