<svg width="41" height="77" viewBox="0 0 41 77" fill="none" xmlns="http://www.w3.org/2000/svg">
<g clip-path="url(#clip0_2322_8040)">
<path d="M23.3639 5.22387C23.0135 5.15469 22.7047 4.94841 22.5041 4.64943C22.3034 4.35044 22.2268 3.98265 22.2909 3.62522C22.3549 3.26779 22.5544 2.94929 22.8465 2.73828C23.1385 2.52727 23.4997 2.44061 23.8524 2.49697L38.9321 4.90418C39.1093 4.93184 39.2792 4.99479 39.4319 5.08941C39.5847 5.18402 39.7174 5.30843 39.8224 5.45552C39.9274 5.60262 40.0026 5.7695 40.0438 5.94659C40.0849 6.12369 40.0912 6.30751 40.0623 6.48752C40.0333 6.66753 39.9697 6.84021 39.875 6.99562C39.7804 7.15104 39.6566 7.28614 39.5107 7.39319C39.3649 7.50025 39.1998 7.57714 39.025 7.61947C38.8502 7.6618 38.6691 7.66873 38.4921 7.63986L23.4126 5.23268L23.3639 5.22387Z" fill="white"/>
<path d="M30.6238 41.6732C30.4847 41.6458 30.3509 41.5965 30.2272 41.5269L16.2191 33.683C16.0628 33.5954 15.9252 33.4773 15.8141 33.3354C15.703 33.1935 15.6207 33.0307 15.5718 32.8561C15.5229 32.6815 15.5085 32.4987 15.5292 32.318C15.55 32.1372 15.6055 31.9622 15.6927 31.8029C15.78 31.6436 15.8971 31.5031 16.0375 31.3894C16.1779 31.2757 16.3389 31.1911 16.5111 31.1403C16.6833 31.0896 16.8635 31.0737 17.0413 31.0937C17.2191 31.1136 17.3911 31.1689 17.5475 31.2565L31.5555 39.1004C31.8393 39.2594 32.0572 39.5164 32.17 39.8252C32.2828 40.134 32.283 40.4742 32.1706 40.7845C32.0582 41.0949 31.8406 41.355 31.557 41.5179C31.2734 41.6809 30.9424 41.7359 30.6238 41.6732Z" fill="white"/>
<path d="M16.3088 74.5071C15.9713 74.441 15.6719 74.2471 15.471 73.9647L3.28431 56.8781C3.07282 56.5816 2.98652 56.2111 3.0444 55.8483C3.10227 55.4854 3.29959 55.1599 3.59292 54.9432C3.88626 54.7266 4.25159 54.6366 4.60855 54.6931C4.9655 54.7496 5.28484 54.9479 5.49632 55.2445L17.6829 72.3311C17.8431 72.5557 17.9327 72.8246 17.9399 73.1027C17.9471 73.3808 17.8717 73.6552 17.7233 73.8901C17.575 74.1249 17.3607 74.3094 17.1084 74.4195C16.8561 74.5296 16.5775 74.5601 16.3088 74.5071Z" fill="white"/>
</g>
<defs>
<clipPath id="clip0_2322_8040">
<rect width="26.771" height="72.6641" fill="white" transform="translate(14.0503) rotate(11.149)"/>
</clipPath>
</defs>
</svg>
