<svg width="58" height="70" viewBox="0 0 58 70" fill="none" xmlns="http://www.w3.org/2000/svg">
<g clip-path="url(#clip0_2322_8036)">
<path d="M53.3838 19.35C53.3445 19.3289 53.3059 19.3058 53.2679 19.2806L28.8863 3.05283C28.5777 2.84649 28.3633 2.52685 28.2902 2.16406C28.217 1.80127 28.2909 1.42495 28.4959 1.11763C28.7008 0.810318 29.0199 0.597115 29.3832 0.524799C29.7466 0.452484 30.1244 0.526954 30.4339 0.731881L54.8156 16.9596C55.1154 17.159 55.3271 17.4656 55.407 17.8157C55.4869 18.1657 55.4287 18.5324 55.2446 18.8398C55.0605 19.1472 54.7645 19.3716 54.4181 19.4666C54.0716 19.5616 53.7013 19.5198 53.3838 19.35Z" fill="white"/>
<path d="M27.7725 36.2104C27.4701 36.0478 27.2376 35.7804 27.119 35.4589C27.0005 35.1375 27.0042 34.7843 27.1295 34.4664C27.2547 34.1485 27.4928 33.888 27.7986 33.7343C28.1044 33.5806 28.4565 33.5443 28.7883 33.6325L40.4825 36.7405C40.8417 36.836 41.1488 37.0697 41.3361 37.3902C41.5235 37.7107 41.5758 38.0918 41.4815 38.4497C41.3873 38.8075 41.1542 39.1127 40.8336 39.2982C40.5129 39.4837 40.131 39.5343 39.7718 39.4388L28.0776 36.3308C27.9716 36.3026 27.8692 36.2622 27.7725 36.2104Z" fill="white"/>
<path d="M10.6011 59.9017C10.3312 59.7572 10.1158 59.5288 9.98771 59.2513C9.85967 58.9738 9.82607 58.6625 9.89202 58.365C9.95798 58.0675 10.1199 57.8001 10.353 57.6036C10.5861 57.4072 10.8776 57.2925 11.1829 57.2771L32.7622 56.1912C33.1325 56.1734 33.4954 56.3028 33.7713 56.5511C34.0472 56.7995 34.2135 57.1463 34.2337 57.5157C34.2539 57.8851 34.1264 58.2468 33.8792 58.5214C33.6319 58.796 33.2852 58.9612 32.9149 58.9806L11.3357 60.0663C11.0806 60.0795 10.8265 60.0225 10.6011 59.9017Z" fill="white"/>
</g>
<defs>
<clipPath id="clip0_2322_8036">
<rect width="31.9603" height="61.5236" fill="white" transform="translate(29.0845) rotate(28.2119)"/>
</clipPath>
</defs>
</svg>
