<svg width="10" height="10" viewBox="0 0 35 33" fill="none" xmlns="http://www.w3.org/2000/svg">
<g clip-path="url(#clip0_1877_6808)">
<path d="M34.9999 17.3253C35.0018 17.0479 34.8604 16.7897 34.6271 16.6447H34.623L34.6084 16.6364L22.4805 9.35994C22.4281 9.32408 22.3738 9.2913 22.3177 9.26177C21.8494 9.01691 21.2932 9.01691 20.8249 9.26177C20.7688 9.29132 20.7145 9.32408 20.6621 9.35994L8.53422 16.6364L8.51958 16.6447C8.14891 16.8783 8.03527 17.3723 8.26577 17.748C8.33369 17.8587 8.42723 17.9509 8.53829 18.0167L20.6662 25.2932C20.7187 25.3287 20.7731 25.3615 20.829 25.3913C21.2973 25.6362 21.8535 25.6362 22.3218 25.3913C22.3777 25.3615 22.432 25.3287 22.4846 25.2932L34.6125 18.0167C34.8548 17.8735 35.0027 17.6096 34.9999 17.3253Z" fill="#0A2767"/>
<path d="M9.94867 12.4666H17.9075V19.861H9.94867V12.4666ZM33.3726 4.95V1.56749C33.3917 0.721789 32.7313 0.020265 31.8969 0H11.2437C10.4093 0.020265 9.74887 0.721789 9.76798 1.56749V4.95L21.9773 8.24999L33.3726 4.95Z" fill="#0364B8"/>
<path d="M9.76733 4.94922H17.9069V12.3742H9.76733V4.94922Z" fill="#0078D4"/>
<path d="M26.0458 4.94922H17.9062V12.3742L26.0458 19.7992H33.3714V12.3742L26.0458 4.94922Z" fill="#28A8EA"/>
<path d="M17.9062 12.375H26.0458V19.8H17.9062V12.375Z" fill="#0078D4"/>
<path d="M17.9062 19.8008H26.0458V27.2258H17.9062V19.8008Z" fill="#0364B8"/>
<path d="M9.94727 19.8613H17.9061V26.5834H9.94727V19.8613Z" fill="#14447D"/>
<path d="M26.0469 19.8008H33.3725V27.2258H26.0469V19.8008Z" fill="#0078D4"/>
<path d="M34.6263 17.9702L34.6109 17.9785L22.483 24.8919C22.4301 24.9249 22.3763 24.9563 22.3202 24.9843C22.1142 25.0838 21.8905 25.1399 21.6625 25.1493L20.9999 24.7566C20.9439 24.7282 20.8896 24.6965 20.8371 24.6618L8.54646 17.5519H8.54076L8.13867 17.3242V31.3195C8.14494 32.2533 8.89661 33.0051 9.81785 32.9992H33.346C33.3598 32.9992 33.372 32.9926 33.3867 32.9926C33.5812 32.98 33.7731 32.9394 33.9564 32.8722C34.0357 32.8381 34.1121 32.7979 34.1851 32.7517C34.2397 32.7204 34.3333 32.6519 34.3333 32.6519C34.7502 32.3392 34.997 31.8453 34.9991 31.3195V17.3242C34.9988 17.5919 34.8564 17.8387 34.6263 17.9702Z" fill="url(#paint0_linear_1877_6808)"/>
<path opacity="0.5" d="M34.3494 17.2702V18.1282L21.668 26.978L8.53896 17.559C8.53896 17.5544 8.53531 17.5507 8.53082 17.5507L7.32617 16.8165V16.1977L7.82269 16.1895L8.87268 16.8L8.89708 16.8082L8.98662 16.866C8.98662 16.866 21.3261 24.0022 21.3587 24.0187L21.8308 24.2992C21.8715 24.2827 21.9122 24.2662 21.961 24.2497C21.9854 24.2332 34.211 17.2619 34.211 17.2619L34.3494 17.2702Z" fill="#0A2767"/>
<path d="M34.6263 17.9702L34.6108 17.9793L22.4829 24.8928C22.43 24.9257 22.3763 24.9571 22.3201 24.9851C21.8491 25.2184 21.2983 25.2184 20.8274 24.9851C20.7716 24.9571 20.7173 24.9263 20.6646 24.8928L8.53669 17.9793L8.52205 17.9702C8.2879 17.8415 8.1411 17.5942 8.13867 17.3242V31.3195C8.1445 32.2531 8.89591 33.0051 9.81697 32.9992C9.81697 32.9992 9.81701 32.9992 9.81705 32.9992H33.3207C34.2418 33.0052 34.9932 32.2532 34.9991 31.3196C34.9991 31.3196 34.9991 31.3196 34.9991 31.3195V17.3242C34.9988 17.5919 34.8564 17.8387 34.6263 17.9702Z" fill="#1490DF"/>
<path opacity="0.1" d="M22.6598 24.791L22.4783 24.8941C22.4257 24.9281 22.3714 24.9592 22.3155 24.9874C22.1156 25.0869 21.8981 25.1452 21.6758 25.159L26.2901 30.6898L34.3393 32.6557C34.5598 32.4869 34.7353 32.2648 34.8496 32.0098L22.6598 24.791Z" fill="black"/>
<path opacity="0.05" d="M23.4819 24.3223L22.4783 24.894C22.4257 24.9279 22.3714 24.9591 22.3155 24.9872C22.1156 25.0867 21.8981 25.145 21.6758 25.1588L23.8376 31.2003L34.3417 32.6531C34.7555 32.3382 34.9991 31.8444 34.9994 31.3199V31.1392L23.4819 24.3223Z" fill="black"/>
<path d="M9.83983 32.9992H33.3183C33.6796 33.0011 34.0319 32.8854 34.3235 32.6692L20.9991 24.7583C20.9431 24.7298 20.8888 24.6981 20.8363 24.6634L8.54564 17.5536H8.53994L8.13867 17.3242V31.2717C8.13776 32.2248 8.89939 32.9983 9.83983 32.9992Z" fill="#28A8EA"/>
<path opacity="0.1" d="M19.534 8.11183V25.7091C19.5326 26.326 19.1624 26.8806 18.598 27.1116C18.4231 27.1877 18.2348 27.227 18.0445 27.2271H8.13867V7.4246H9.76658V6.59961H18.0445C18.8668 6.60277 19.5322 7.27837 19.534 8.11183Z" fill="black"/>
<path opacity="0.2" d="M18.7201 8.93807V26.5353C18.7221 26.7346 18.6804 26.9319 18.598 27.1128C18.3719 27.6775 17.8318 28.048 17.2305 28.0508H8.13867V7.42585H17.2305C17.4667 7.42345 17.6995 7.48316 17.9061 7.59911C18.4051 7.85389 18.7199 8.37179 18.7201 8.93807Z" fill="black"/>
<path opacity="0.2" d="M18.7201 8.93807V24.8853C18.7161 25.7184 18.0524 26.3936 17.2305 26.4008H8.13867V7.42585H17.2305C17.4667 7.42345 17.6995 7.48316 17.9061 7.59911C18.4051 7.85389 18.7199 8.37179 18.7201 8.93807Z" fill="black"/>
<path opacity="0.2" d="M17.9061 8.938V24.8852C17.9052 25.7196 17.2398 26.3967 16.4166 26.4008H8.13867V7.42578H16.4166C17.2397 7.42623 17.9065 8.10291 17.9061 8.93719C17.9061 8.93746 17.9061 8.93773 17.9061 8.938Z" fill="black"/>
<path d="M1.49197 7.42578H16.415C17.239 7.42578 17.907 8.10284 17.907 8.938V24.0635C17.907 24.8987 17.239 25.5758 16.415 25.5758H1.49197C0.66797 25.5758 0 24.8987 0 24.0635V8.938C0 8.10284 0.667989 7.42578 1.49197 7.42578Z" fill="url(#paint1_linear_1877_6808)"/>
<path d="M4.66367 13.7684C5.03139 12.9743 5.62493 12.3097 6.3681 11.8601C7.1911 11.3826 8.12817 11.1445 9.07612 11.1721C9.95471 11.1528 10.8217 11.3785 11.5823 11.8246C12.2974 12.2569 12.8734 12.8903 13.2403 13.6479C13.6399 14.4827 13.839 15.4014 13.8215 16.3291C13.8408 17.2987 13.6359 18.2593 13.2232 19.1341C12.8476 19.9188 12.2533 20.5748 11.5139 21.0209C10.724 21.4807 9.82483 21.7124 8.91415 21.6908C8.01679 21.7128 7.13072 21.4845 6.35263 21.0308C5.6313 20.598 5.0481 19.9639 4.67264 19.2042C4.2707 18.3815 4.0692 17.4731 4.08497 16.5552C4.06822 15.5939 4.26605 14.6412 4.66367 13.7684ZM6.48041 18.2481C6.67647 18.7501 7.00894 19.1855 7.43925 19.5037C7.87754 19.8142 8.40236 19.9744 8.93691 19.9608C9.5062 19.9836 10.0673 19.818 10.5355 19.4889C10.9604 19.1716 11.2841 18.7351 11.4667 18.2332C11.6708 17.6728 11.7715 17.0791 11.7638 16.4818C11.7701 15.8787 11.6754 15.279 11.4838 14.708C11.3145 14.1925 11.0012 13.738 10.5819 13.3996C10.1255 13.0549 9.56583 12.8801 8.99714 12.9046C8.45101 12.8902 7.91443 13.0517 7.46448 13.3657C7.02689 13.6853 6.68811 14.1246 6.48773 14.6321C6.04323 15.7955 6.04092 17.0847 6.48122 18.2497L6.48041 18.2481Z" fill="white"/>
<path d="M26.0469 4.94922H33.3725V12.3742H26.0469V4.94922Z" fill="#50D9FF"/>
</g>
<defs>
<linearGradient id="paint0_linear_1877_6808" x1="21.5689" y1="17.3242" x2="21.5689" y2="32.9992" gradientUnits="userSpaceOnUse">
<stop stop-color="#35B8F1"/>
<stop offset="1" stop-color="#28A8EA"/>
</linearGradient>
<linearGradient id="paint1_linear_1877_6808" x1="3.1108" y1="6.24416" x2="15.034" y2="26.6182" gradientUnits="userSpaceOnUse">
<stop stop-color="#1784D9"/>
<stop offset="0.5" stop-color="#107AD5"/>
<stop offset="1" stop-color="#0A63C9"/>
</linearGradient>
<clipPath id="clip0_1877_6808">
<rect width="35" height="33" fill="white"/>
</clipPath>
</defs>
</svg>
