<svg width="512.000000pt" height="512.000000pt" viewBox="0 0 24 20" fill="none" xmlns="http://www.w3.org/2000/svg">
<path d="M21.3193 5.37527C21.3336 5.58229 21.3336 5.78931 21.3336 5.99823C21.3336 12.3643 16.4966 19.7064 7.65195 19.7064V19.7026C5.03921 19.7064 2.48075 18.9565 0.28125 17.5427C0.661163 17.5885 1.04298 17.6114 1.42575 17.6123C3.59097 17.6143 5.6943 16.8863 7.39772 15.546C5.34009 15.5068 3.53574 14.1627 2.90541 12.2003C3.6262 12.3395 4.36889 12.3109 5.07634 12.1173C2.83305 11.6631 1.21913 9.68834 1.21913 7.3949C1.21913 7.37392 1.21913 7.35388 1.21913 7.33385C1.88755 7.70687 2.63595 7.91389 3.40149 7.93678C1.28864 6.52199 0.637359 3.70575 1.91326 1.50389C4.3546 4.51379 7.95664 6.34359 11.8234 6.53725C11.4358 4.86392 11.9652 3.11045 13.2145 1.93415C15.1512 0.110085 18.1972 0.203578 20.0177 2.14308C21.0946 1.93034 22.1267 1.53442 23.0713 0.973464C22.7123 2.0887 21.9611 3.03603 20.9575 3.63801C21.9106 3.52544 22.8418 3.26977 23.7188 2.87958C23.0732 3.84885 22.26 4.69315 21.3193 5.37527Z" fill="white"/>
</svg>
