<svg width="26" height="25" viewBox="0 0 26 25" fill="none" xmlns="http://www.w3.org/2000/svg">
<path d="M22.826 10.8748L21.8052 15.229C20.9302 18.9894 19.201 20.5102 15.951 20.1977C15.4302 20.156 14.8677 20.0623 14.2635 19.9165L12.5135 19.4998C8.16978 18.4685 6.82603 16.3227 7.84687 11.9685L8.8677 7.60395C9.07603 6.71854 9.32603 5.9477 9.63853 5.31228C10.8573 2.79145 12.9302 2.11437 16.4094 2.93728L18.1489 3.34353C22.5135 4.36437 23.8469 6.52062 22.826 10.8748Z" stroke="currentColor" stroke-width="1.60979" stroke-linecap="round" stroke-linejoin="round"/>
<path d="M15.9508 20.1979C15.305 20.6354 14.4925 21 13.5029 21.3229L11.857 21.8646C7.72163 23.1979 5.54455 22.0833 4.20079 17.9479L2.86746 13.8333C1.53413 9.69792 2.63829 7.51042 6.77371 6.17708L8.41954 5.63542C8.84663 5.5 9.25288 5.38542 9.6383 5.3125C9.3258 5.94792 9.0758 6.71875 8.86746 7.60417L7.84663 11.9688C6.8258 16.3229 8.16955 18.4687 12.5133 19.5L14.2633 19.9167C14.8675 20.0625 15.43 20.1563 15.9508 20.1979Z" stroke="currentColor" stroke-width="1.60979" stroke-linecap="round" stroke-linejoin="round"/>
<path d="M13.4297 8.88574L18.4818 10.167" stroke="currentColor" stroke-width="1.60979" stroke-linecap="round" stroke-linejoin="round"/>
<path d="M12.4102 12.917L15.431 13.6878" stroke="currentColor" stroke-width="1.60979" stroke-linecap="round" stroke-linejoin="round"/>
</svg>
