<svg width="27" height="26" viewBox="0 0 27 26" fill="none" xmlns="http://www.w3.org/2000/svg">
<path d="M16.514 2.16699H10.014C4.59733 2.16699 2.43066 4.33366 2.43066 9.75033V16.2503C2.43066 20.3453 3.66566 22.5878 6.61233 23.422C6.85066 20.6053 9.74316 18.3845 13.264 18.3845C16.7848 18.3845 19.6773 20.6053 19.9157 23.422C22.8623 22.5878 24.0973 20.3453 24.0973 16.2503V9.75033C24.0973 4.33366 21.9307 2.16699 16.514 2.16699ZM13.264 15.3511C11.119 15.3511 9.38566 13.607 9.38566 11.462C9.38566 9.31701 11.119 7.58366 13.264 7.58366C15.409 7.58366 17.1423 9.31701 17.1423 11.462C17.1423 13.607 15.409 15.3511 13.264 15.3511Z" stroke="currentColor" stroke-width="1.60979" stroke-linecap="round" stroke-linejoin="round"/>
<path d="M17.1424 11.4623C17.1424 13.6073 15.4091 15.3515 13.2641 15.3515C11.1191 15.3515 9.38574 13.6073 9.38574 11.4623C9.38574 9.31734 11.1191 7.58398 13.2641 7.58398C15.4091 7.58398 17.1424 9.31734 17.1424 11.4623Z" stroke="currentColor" stroke-width="0.965875" stroke-linecap="round" stroke-linejoin="round"/>
<path d="M19.9156 23.4223C18.9623 23.704 17.8356 23.834 16.514 23.834H10.014C8.6923 23.834 7.56564 23.704 6.6123 23.4223C6.85064 20.6056 9.74314 18.3848 13.264 18.3848C16.7848 18.3848 19.6773 20.6056 19.9156 23.4223Z" stroke="currentColor" stroke-width="1.60979" stroke-linecap="round" stroke-linejoin="round"/>
</svg>
