<svg width="27" height="26" viewBox="0 0 27 26" fill="none" xmlns="http://www.w3.org/2000/svg">
<path d="M24.0973 12.4587V16.792C24.0973 20.5837 21.9307 22.2087 18.6807 22.2087H7.84733C4.59733 22.2087 2.43066 20.5837 2.43066 16.792V9.20866C2.43066 5.41699 4.59733 3.79199 7.84733 3.79199H13.264" stroke="currentColor" stroke-width="1.60979" stroke-miterlimit="10" stroke-linecap="round" stroke-linejoin="round"/>
<path d="M7.84668 9.75L11.2375 12.4583C12.3534 13.3467 14.1842 13.3467 15.3 12.4583" stroke="currentColor" stroke-width="1.60979" stroke-miterlimit="10" stroke-linecap="round" stroke-linejoin="round"/>
<path d="M21.3667 3.05457L21.67 3.67206C21.8217 3.9754 22.2008 4.25707 22.5367 4.32207L22.9483 4.38707C24.1833 4.5929 24.4758 5.5029 23.5875 6.40207L23.2083 6.78122C22.9592 7.04122 22.8183 7.53956 22.8942 7.88623L22.9483 8.11374C23.2842 9.60874 22.4933 10.1829 21.1933 9.40289L20.9117 9.24039C20.5758 9.04539 20.0342 9.04539 19.6983 9.24039L19.4167 9.40289C18.1058 10.1937 17.315 9.60874 17.6617 8.11374L17.7158 7.88623C17.7916 7.53956 17.6508 7.04122 17.4017 6.78122L17.0225 6.40207C16.1342 5.5029 16.4267 4.5929 17.6617 4.38707L18.0733 4.32207C18.3983 4.2679 18.7883 3.9754 18.94 3.67206L19.2433 3.05457C19.8283 1.87374 20.7817 1.87374 21.3667 3.05457Z" stroke="currentColor" stroke-width="1.60979" stroke-linecap="round" stroke-linejoin="round"/>
</svg>
