<svg width="27" height="27" viewBox="0 0 27 27" fill="none" xmlns="http://www.w3.org/2000/svg">
<path d="M13.2637 16.6865C15.0586 16.6865 16.5137 15.2314 16.5137 13.4365C16.5137 11.6416 15.0586 10.1865 13.2637 10.1865C11.4687 10.1865 10.0137 11.6416 10.0137 13.4365C10.0137 15.2314 11.4687 16.6865 13.2637 16.6865Z" stroke="currentColor" stroke-width="1.60979" stroke-miterlimit="10" stroke-linecap="round" stroke-linejoin="round"/>
<path d="M2.43066 14.3897V12.4831C2.43066 11.3564 3.3515 10.4247 4.489 10.4247C6.44983 10.4247 7.2515 9.03808 6.26566 7.33725C5.70233 6.36225 6.03816 5.09475 7.024 4.53141L8.89816 3.45891C9.754 2.94975 10.859 3.25308 11.3682 4.10891L11.4873 4.31475C12.4623 6.01558 14.0657 6.01558 15.0515 4.31475L15.1707 4.10891C15.6798 3.25308 16.7848 2.94975 17.6407 3.45891L19.5148 4.53141C20.5007 5.09475 20.8365 6.36225 20.2732 7.33725C19.2873 9.03808 20.089 10.4247 22.0498 10.4247C23.1765 10.4247 24.1082 11.3456 24.1082 12.4831V14.3897C24.1082 15.5164 23.1873 16.4481 22.0498 16.4481C20.089 16.4481 19.2873 17.8347 20.2732 19.5356C20.8365 20.5214 20.5007 21.7781 19.5148 22.3414L17.6407 23.4139C16.7848 23.9231 15.6798 23.6197 15.1707 22.7639L15.0515 22.5581C14.0765 20.8572 12.4732 20.8572 11.4873 22.5581L11.3682 22.7639C10.859 23.6197 9.754 23.9231 8.89816 23.4139L7.024 22.3414C6.03816 21.7781 5.70233 20.5106 6.26566 19.5356C7.2515 17.8347 6.44983 16.4481 4.489 16.4481C3.3515 16.4481 2.43066 15.5164 2.43066 14.3897Z" stroke="currentColor" stroke-width="1.60979" stroke-miterlimit="10" stroke-linecap="round" stroke-linejoin="round"/>
</svg>
